<svg width="55" height="26" viewBox="0 0 55 26" fill="none" xmlns="http://www.w3.org/2000/svg">
<path d="M21.8297 13.626L25.5203 5.15615L33.9348 24.4763C33.9348 24.4763 33.9348 24.4763 33.9348 24.4947C33.9348 24.4947 33.9348 24.5316 33.9532 24.5501C33.9532 24.5501 33.9532 24.5685 33.9532 24.587C33.9532 24.6239 33.9901 24.6423 34.0086 24.6793C34.0086 24.6977 34.0455 24.7346 34.0639 24.7531C34.0639 24.7531 34.0824 24.79 34.1008 24.8084C34.1008 24.8084 34.1193 24.8269 34.1193 24.8453C34.1193 24.8453 34.1193 24.8453 34.1377 24.8638C34.1377 24.8638 34.1746 24.9007 34.1746 24.9191C34.1746 24.9376 34.2116 24.956 34.23 24.9745C34.23 24.9745 34.2485 24.9929 34.2669 25.0114C34.2854 25.0299 34.3038 25.0483 34.3407 25.0668C34.3407 25.0668 34.3776 25.0852 34.3776 25.1037C34.3776 25.1037 34.3961 25.1037 34.4145 25.1221C34.4145 25.1221 34.4145 25.1221 34.433 25.1221C34.433 25.1221 34.4514 25.1221 34.4699 25.1406C34.4699 25.1406 34.4699 25.1406 34.5068 25.1406C34.5437 25.1406 34.5622 25.1775 34.5991 25.1959C34.5991 25.1959 34.5991 25.1959 34.6175 25.1959C34.6729 25.2144 34.7467 25.2513 34.802 25.2697C34.8574 25.2697 34.9128 25.3066 34.9866 25.3066C34.9866 25.3066 35.005 25.3066 35.0235 25.3066H35.0604C35.1157 25.3066 35.1526 25.3066 35.208 25.3066C35.208 25.3066 35.3372 25.3066 35.3925 25.3066C35.3925 25.3066 35.411 25.3066 35.4294 25.3066C35.6509 25.2697 35.8723 25.1775 36.0568 25.0483C36.0568 25.0483 36.1306 24.9929 36.1676 24.956C36.2045 24.9191 36.2229 24.9007 36.2598 24.8638C36.2598 24.8638 36.2783 24.8453 36.2967 24.8269C36.2967 24.8269 36.3336 24.79 36.3336 24.7715C36.3521 24.7346 36.389 24.6977 36.4074 24.6608C36.4443 24.587 36.4997 24.5132 36.5182 24.4394L42.5522 10.5813L43.8624 13.6076C44.1023 14.1427 44.6374 14.4933 45.2094 14.4933H53.015C53.8269 14.4933 54.4912 13.829 54.4912 13.0171C54.4912 12.2051 53.8269 11.5408 53.015 11.5408H46.169L43.8808 6.30023C43.8808 6.30023 43.8808 6.28178 43.8808 6.26332C43.8808 6.24487 43.8624 6.20796 43.8439 6.18951C43.8439 6.17106 43.8255 6.15261 43.807 6.13415C43.807 6.1157 43.7886 6.09725 43.7701 6.0788C43.7701 6.06034 43.7332 6.04189 43.7332 6.02344C43.7332 6.00498 43.6963 5.98653 43.6963 5.96808C43.6963 5.94963 43.6594 5.93117 43.6409 5.91272C43.6409 5.89427 43.604 5.87581 43.5856 5.85736C43.5856 5.85736 43.5487 5.82046 43.5302 5.802C43.5118 5.802 43.4933 5.7651 43.4749 5.74664C43.4564 5.74664 43.438 5.70974 43.4195 5.70974C43.4011 5.70974 43.3826 5.69129 43.3642 5.67283C43.3457 5.67283 43.3273 5.65438 43.3088 5.63593C43.2903 5.63593 43.2719 5.61747 43.2534 5.59902C43.235 5.59902 43.1981 5.58057 43.1796 5.56212C43.1796 5.56212 43.1612 5.56212 43.1427 5.54366C43.1427 5.54366 43.1427 5.54366 43.1243 5.54366C43.1058 5.54366 43.0689 5.54366 43.0505 5.52521C43.032 5.52521 43.0136 5.52521 42.9767 5.50676C42.9582 5.50676 42.9397 5.50676 42.9028 5.50676C42.8844 5.50676 42.8475 5.50676 42.829 5.4883C42.8106 5.4883 42.7921 5.4883 42.7737 5.4883C42.7552 5.4883 42.7183 5.4883 42.6814 5.4883C42.6629 5.4883 42.6445 5.4883 42.626 5.4883C42.6076 5.4883 42.5707 5.4883 42.5338 5.4883C42.5153 5.4883 42.4969 5.4883 42.4784 5.4883C42.46 5.4883 42.4231 5.4883 42.4046 5.4883C42.3862 5.4883 42.3677 5.4883 42.3308 5.4883C42.3123 5.4883 42.2754 5.4883 42.257 5.4883C42.257 5.4883 42.257 5.4883 42.2385 5.4883C42.2201 5.4883 42.2016 5.4883 42.1832 5.4883C42.1832 5.4883 42.1463 5.4883 42.1278 5.4883C42.0909 5.4883 42.054 5.50676 42.0171 5.52521H41.9986C41.9617 5.52521 41.9248 5.56212 41.8879 5.58057C41.8879 5.58057 41.8879 5.58057 41.8695 5.58057C41.8326 5.59902 41.7957 5.61747 41.7588 5.63593C41.7403 5.63593 41.7219 5.65438 41.7034 5.67283C41.7034 5.67283 41.6665 5.69129 41.648 5.70974C41.6296 5.70974 41.6111 5.72819 41.5927 5.74664C41.5927 5.74664 41.5558 5.7651 41.5558 5.78355C41.4082 5.93117 41.279 6.1157 41.2052 6.31868L35.1711 20.1583L26.8858 0.875096C26.8858 0.875096 26.8858 0.856643 26.8858 0.83819C26.8858 0.819737 26.8673 0.782832 26.8489 0.764379C26.8489 0.745926 26.8304 0.727473 26.812 0.709021C26.812 0.690568 26.7935 0.672115 26.7751 0.653662C26.7751 0.635209 26.7566 0.616756 26.7382 0.598304C26.7382 0.579851 26.7012 0.561398 26.6828 0.542945C26.6828 0.542945 26.6459 0.506039 26.6459 0.487587C26.6459 0.487587 26.609 0.450681 26.5905 0.432228C26.5721 0.413775 26.5536 0.395323 26.5352 0.37687C26.5167 0.37687 26.4983 0.339964 26.4798 0.321511C26.4614 0.321511 26.4429 0.284605 26.4245 0.284605C26.406 0.284605 26.3876 0.2477 26.3691 0.2477C26.3506 0.2477 26.3322 0.210794 26.3137 0.210794C26.2953 0.210794 26.2768 0.192341 26.2584 0.173888C26.2399 0.173888 26.2215 0.155436 26.1846 0.136983C26.1846 0.136983 26.1661 0.136983 26.1477 0.11853C26.1477 0.11853 26.1477 0.11853 26.1292 0.11853C26.1108 0.11853 26.0739 0.100077 26.0554 0.100077C26.0369 0.100077 26.0185 0.100077 25.9816 0.0816242C25.9631 0.0816242 25.9447 0.0816242 25.9078 0.0816242C25.8893 0.0816242 25.8524 0.0816242 25.834 0.0631714C25.8155 0.0631714 25.7971 0.0631714 25.7786 0.0631714C25.7602 0.0631714 25.7232 0.0631714 25.7048 0.0631714C25.6863 0.0631714 25.6679 0.0631714 25.6494 0.0631714C25.631 0.0631714 25.5941 0.0631714 25.5756 0.0631714C25.5572 0.0631714 25.5387 0.0631714 25.5018 0.0631714C25.4834 0.0631714 25.4465 0.0631714 25.428 0.0631714C25.4095 0.0631714 25.3726 0.0631714 25.3542 0.0631714C25.3357 0.0631714 25.2988 0.0631714 25.2804 0.0631714C25.2619 0.0631714 25.225 0.0631714 25.2066 0.0631714C25.1881 0.0631714 25.1512 0.0631714 25.1328 0.0816242C25.1143 0.0816242 25.0959 0.0816242 25.0774 0.100077C25.0589 0.100077 25.022 0.11853 25.0036 0.136983C25.0036 0.136983 25.0036 0.136983 24.9851 0.136983C24.9851 0.136983 24.9667 0.136983 24.9482 0.136983C24.9298 0.136983 24.8929 0.155436 24.8744 0.173888C24.8744 0.173888 24.8375 0.173888 24.8191 0.192341C24.8006 0.192341 24.7822 0.210794 24.7637 0.229247C24.7637 0.229247 24.7268 0.2477 24.7083 0.266153C24.7083 0.266153 24.6714 0.284605 24.653 0.303058C24.653 0.303058 24.6161 0.321511 24.6161 0.339964L24.5792 0.37687C24.5792 0.37687 24.5607 0.413775 24.5423 0.413775C24.5423 0.413775 24.5238 0.450681 24.5054 0.450681C24.5054 0.450681 24.5054 0.469134 24.4869 0.487587C24.4869 0.487587 24.4685 0.524492 24.45 0.524492C24.45 0.524492 24.4315 0.542945 24.4131 0.561398C24.4131 0.561398 24.3946 0.579851 24.3946 0.598304C24.3946 0.598304 24.3946 0.616756 24.3946 0.635209C24.3946 0.635209 24.3946 0.653662 24.3762 0.672115C24.3762 0.672115 24.3577 0.709021 24.3393 0.727473C24.3208 0.764379 24.3024 0.801285 24.2839 0.83819L19.6338 11.4855H1.47623C0.664302 11.5593 0 12.2236 0 13.0355C0 13.8474 0.664302 14.5117 1.47623 14.5117H20.4826C21.0731 14.5117 21.6083 14.1611 21.8482 13.626" fill="#00B4B8"/>
</svg>
