<svg width="52" height="70" viewBox="0 0 52 70" fill="none" xmlns="http://www.w3.org/2000/svg">
<path d="M11.3903 10.7179L8.55799 14.4875L6.74451 16.9326L10.5956 16.7696L11.4107 10.7179H11.3903ZM12.3072 28.2414H42.2806V26.2445H12.2868V28.2414H12.3072ZM20.315 22.6583H42.2602V20.6614H20.2947V22.6583H20.315ZM28.4044 34.5987H42.2806V32.6019H28.4044V34.5987ZM28.4044 42.4028H42.2806V40.406H28.4044V42.4028ZM28.4044 50.4107H42.2806V48.4138H28.4044V50.4107ZM12.3072 58.1944H42.2806V56.1975H12.2868V58.1944H12.3072ZM11.3903 37.7163V41.7712H15.9749V46.3354H20.0298V41.7712H24.6144V37.7163H20.0298V33.1317H15.9749V37.7163H11.3903ZM10.8401 4.74765H14.6097V9.80094H14.0596L12.9389 18.1348L12.7962 19.174L11.7367 19.2147L5.03292 19.5204V62.5752C5.03292 63.0846 5.23668 63.5533 5.58307 63.8997C5.92947 64.2461 6.39812 64.4498 6.90752 64.4498H45.0925C45.6019 64.4498 46.0705 64.2461 46.3965 63.8997C46.7226 63.5533 46.9467 63.0846 46.9467 62.5752V11.6755C46.9467 11.1661 46.7429 10.6975 46.3965 10.3511C46.0502 10.0047 45.5815 9.80094 45.0721 9.80094H37.5533V12.2053H17.5643V2.83229H26.5705V1.46708H21.1301V0H34.1708V2.46552H37.5737V4.74765H45.0925C46.9875 4.74765 48.7194 5.52194 49.9624 6.78527C51.2053 8.02821 52 9.76019 52 11.6755V62.5752C52 64.4702 51.2257 66.1818 49.9624 67.4451C48.7194 68.7085 46.9875 69.4827 45.0925 69.4827H6.90752C5.01254 69.4827 3.28056 68.7085 2.03762 67.4451C0.794671 66.2022 0 64.4702 0 62.5752V17.5643L0.509404 16.8918C2.26176 14.5078 3.56583 12.7759 4.52351 11.4922L8.82288 5.78683L9.5768 4.76802H10.8197L10.8401 4.74765Z" fill="white"/>
</svg>
