<svg width="250" height="51" viewBox="0 0 250 51" fill="none" xmlns="http://www.w3.org/2000/svg">
<g clip-path="url(#clip0_6_244)">
<path d="M4.15193 35.9084C7.01868 35.2659 9.83599 37.07 10.4785 39.9367C11.1211 42.8035 9.31701 45.6208 6.45027 46.2633C3.58352 46.9059 0.766205 45.1018 0.123659 42.2351C-0.518887 39.3683 1.28518 36.551 4.15193 35.9084Z" fill="#7CCEEB"/>
<path d="M17.3488 33.3384C20.2156 32.6958 23.0329 34.4999 23.6754 37.3667C24.318 40.2334 22.5139 43.0507 19.6472 43.6933C16.7804 44.3358 13.9631 42.5317 13.3206 39.665C12.678 36.7982 14.4821 33.9809 17.3488 33.3384Z" fill="#7CCEEB"/>
<path d="M29.3595 27.061C32.2262 26.4185 35.0435 28.2226 35.6861 31.0893C36.3286 33.9561 34.5245 36.7734 31.6578 37.4159C28.791 38.0585 25.9737 36.2544 25.3312 33.3876C24.6886 30.5209 26.4927 27.7036 29.3595 27.061Z" fill="#7CCEEB"/>
<path d="M40.4804 18.4363C43.3472 17.7937 46.1645 19.5978 46.807 22.4646C47.4496 25.3313 45.6455 28.1486 42.7788 28.7912C39.912 29.4337 37.0947 27.6296 36.4522 24.7629C35.8096 21.8961 37.6137 19.0788 40.4804 18.4363Z" fill="#7CCEEB"/>
<path d="M51.6756 10.1572C54.5424 9.51468 57.3597 11.3188 58.0022 14.1855C58.6448 17.0522 56.8407 19.8696 53.974 20.5121C51.1072 21.1547 48.2899 19.3506 47.6473 16.4838C47.0048 13.6171 48.8089 10.7998 51.6756 10.1572Z" fill="#7CCEEB"/>
<path d="M64.7242 3.65772C67.5909 3.01517 70.4083 4.81924 71.0508 7.68599C71.6934 10.5527 69.8893 13.3701 67.0225 14.0126C64.1558 14.6551 61.3385 12.8511 60.6959 9.98433C60.0534 7.11758 61.8575 4.30026 64.7242 3.65772Z" fill="#7CCEEB"/>
<path d="M77.3281 0.123537C80.1948 -0.519009 83.0121 1.28506 83.6547 4.15181C84.2972 7.01855 82.4932 9.83587 79.6264 10.4784C76.7597 11.121 73.9424 9.31689 73.2998 6.45015C72.6573 3.5834 74.4613 0.766083 77.3281 0.123537Z" fill="#7CCEEB"/>
<path d="M89.833 0.988527C92.6997 0.345981 95.517 2.15005 96.1596 5.0168C96.8021 7.88354 94.998 10.7009 92.1313 11.3434C89.2645 11.986 86.4472 10.1819 85.8047 7.31514C85.1621 4.44839 86.9662 1.63107 89.833 0.988527Z" fill="#7CCEEB"/>
<path d="M101.72 5.58521C104.587 4.94266 107.404 6.74673 108.047 9.61348C108.689 12.4802 106.885 15.2975 104.018 15.9401C101.152 16.5826 98.3343 14.7786 97.6918 11.9118C97.0492 9.04507 98.8533 6.22775 101.72 5.58521Z" fill="#7CCEEB"/>
<path d="M112.569 13.6912C115.436 13.0486 118.253 14.8527 118.896 17.7194C119.538 20.5862 117.734 23.4035 114.868 24.046C112.001 24.6886 109.184 22.8845 108.541 20.0178C107.898 17.151 109.703 14.3337 112.569 13.6912Z" fill="#7CCEEB"/>
<path d="M123.913 19.1282C126.779 18.4856 129.597 20.2897 130.239 23.1564C130.882 26.0232 129.078 28.8405 126.211 29.4831C123.344 30.1256 120.527 28.3215 119.884 25.4548C119.242 22.588 121.046 19.7707 123.913 19.1282Z" fill="#7CCEEB"/>
<path d="M134.342 26.9622C137.208 26.3196 140.026 28.1237 140.668 30.9904C141.311 33.8572 139.507 36.6745 136.64 37.317C133.773 37.9596 130.956 36.1555 130.313 33.2888C129.671 30.422 131.475 27.6047 134.342 26.9622Z" fill="#7CCEEB"/>
<path d="M145.71 34.2034C148.577 33.5608 151.394 35.3649 152.036 38.2316C152.679 41.0984 150.875 43.9157 148.008 44.5583C145.141 45.2008 142.324 43.3967 141.682 40.53C141.039 37.6632 142.843 34.8459 145.71 34.2034Z" fill="#7CCEEB"/>
<path d="M157.597 38.8247C160.464 38.1822 163.281 39.9862 163.923 42.853C164.566 45.7197 162.762 48.537 159.895 49.1796C157.028 49.8221 154.211 48.0181 153.569 45.1513C152.926 42.2846 154.73 39.4673 157.597 38.8247Z" fill="#7CCEEB"/>
<path d="M170.448 39.5908C173.315 38.9483 176.132 40.7523 176.774 43.6191C177.417 46.4858 175.613 49.3032 172.746 49.9457C169.879 50.5882 167.062 48.7842 166.42 45.9174C165.777 43.0507 167.581 40.2334 170.448 39.5908Z" fill="#7CCEEB"/>
<path d="M183.076 36.0815C185.943 35.439 188.76 37.2431 189.403 40.1098C190.046 42.9766 188.241 45.7939 185.375 46.4364C182.508 47.079 179.691 45.2749 179.048 42.4082C178.406 39.5414 180.21 36.7241 183.076 36.0815Z" fill="#7CCEEB"/>
<path d="M195.68 29.2854C198.547 28.6429 201.364 30.4469 202.007 33.3137C202.649 36.1804 200.845 38.9977 197.978 39.6403C195.112 40.2828 192.294 38.4788 191.652 35.612C191.009 32.7453 192.813 29.9279 195.68 29.2854Z" fill="#7CCEEB"/>
<path d="M207.073 20.2402C209.94 19.5977 212.757 21.4018 213.4 24.2685C214.042 27.1353 212.238 29.9526 209.371 30.5951C206.505 31.2377 203.687 29.4336 203.045 26.5668C202.402 23.7001 204.206 20.8828 207.073 20.2402Z" fill="#7CCEEB"/>
<path d="M218.046 10.9233C220.912 10.2808 223.73 12.0849 224.372 14.9516C225.015 17.8184 223.211 20.6357 220.344 21.2782C217.477 21.9208 214.66 20.1167 214.017 17.25C213.375 14.3832 215.179 11.5659 218.046 10.9233Z" fill="#7CCEEB"/>
<path d="M229.859 5.41236C232.725 4.76981 235.543 6.57388 236.185 9.44063C236.828 12.3074 235.024 15.1247 232.157 15.7672C229.29 16.4098 226.473 14.6057 225.83 11.739C225.188 8.87222 226.992 6.0549 229.859 5.41236Z" fill="#7CCEEB"/>
<path d="M243.55 3.45996C246.417 2.81742 249.234 4.62149 249.876 7.48823C250.519 10.355 248.715 13.1723 245.848 13.8148C242.981 14.4574 240.164 12.6533 239.522 9.78657C238.879 6.91983 240.683 4.10251 243.55 3.45996Z" fill="#7CCEEB"/>
<path d="M4.30021 12.7768C7.14224 13.444 10.009 11.6647 10.6763 8.82265C11.3435 5.9559 9.56415 3.11387 6.72212 2.44661C3.85537 1.77935 0.988627 3.55871 0.321367 6.40074C-0.345893 9.24277 1.43347 12.1095 4.2755 12.7768" fill="#7CCEEB"/>
<path d="M17.4476 15.4953C20.2896 16.1625 23.1564 14.3832 23.8237 11.5412C24.4909 8.69912 22.7116 5.83238 19.8695 5.16512C17.0275 4.49786 14.1607 6.27722 13.4935 9.11925C12.8262 11.9613 14.6056 14.828 17.4476 15.4953Z" fill="#7CCEEB"/>
<path d="M29.3841 21.8959C32.2262 22.5632 35.0929 20.7838 35.7602 17.9418C36.4274 15.0998 34.6481 12.233 31.806 11.5658C28.964 10.8985 26.0973 12.6779 25.43 15.5199C24.7627 18.3619 26.5421 21.2287 29.3841 21.8959Z" fill="#7CCEEB"/>
<path d="M51.5026 39.0717C54.3446 39.739 57.2113 37.9596 57.8786 35.1176C58.5458 32.2755 56.7665 29.4088 53.9245 28.7415C51.0824 28.0743 48.2157 29.8536 47.5484 32.6957C46.8812 35.5377 48.6605 38.4044 51.5026 39.0717Z" fill="#7CCEEB"/>
<path d="M64.4772 45.7197C67.3192 46.3869 70.1859 44.6076 70.8532 41.7655C71.5205 38.8988 69.7411 36.0567 66.8991 35.3895C64.057 34.7222 61.1903 36.5016 60.523 39.3436C59.8558 42.1856 61.6351 45.0524 64.4772 45.7197Z" fill="#7CCEEB"/>
<path d="M77.0561 49.3774C79.8982 50.0446 82.7649 48.29 83.4322 45.4232C84.0994 42.5812 82.3201 39.7145 79.478 39.0472C76.636 38.3799 73.7693 40.1593 73.102 43.0013C72.4347 45.8434 74.2141 48.7101 77.0561 49.3774Z" fill="#7CCEEB"/>
<path d="M89.5611 48.6852C92.4032 49.3525 95.2699 47.5731 95.9372 44.7311C96.6044 41.8891 94.8251 39.0223 91.9831 38.3551C89.141 37.6878 86.2743 39.4672 85.607 42.3092C84.9398 45.1512 86.7191 48.018 89.5611 48.6852Z" fill="#7CCEEB"/>
<path d="M101.498 44.2121C104.34 44.8793 107.206 43.1 107.874 40.258C108.541 37.4159 106.762 34.5492 103.92 33.8819C101.078 33.2147 98.2108 34.994 97.5435 37.836C96.8763 40.6781 98.6556 43.5448 101.498 44.2121Z" fill="#7CCEEB"/>
<path d="M112.421 36.2546C115.263 36.9218 118.13 35.1425 118.797 32.3004C119.464 29.4584 117.685 26.5917 114.843 25.9244C112.001 25.2571 109.134 27.0365 108.467 29.8785C107.8 32.7206 109.579 35.5873 112.421 36.2546Z" fill="#7CCEEB"/>
<path d="M123.838 30.9164C126.681 31.5837 129.547 29.8043 130.215 26.9623C130.882 24.1203 129.102 21.2535 126.26 20.5863C123.418 19.919 120.552 21.6984 119.884 24.5404C119.217 27.3824 120.996 30.2492 123.838 30.9164Z" fill="#7CCEEB"/>
<path d="M134.366 23.2306C137.208 23.8979 140.075 22.1433 140.742 19.2765C141.41 16.4345 139.63 13.5677 136.788 12.9005C133.946 12.2332 131.079 14.0126 130.412 16.8546C129.745 19.6966 131.524 22.5634 134.366 23.2306Z" fill="#7CCEEB"/>
<path d="M145.833 16.113C148.675 16.7803 151.542 15.0009 152.209 12.1589C152.877 9.31687 151.097 6.45013 148.255 5.78287C145.413 5.11561 142.546 6.87025 141.879 9.737C141.212 12.579 142.991 15.4458 145.833 16.113Z" fill="#7CCEEB"/>
<path d="M157.77 11.6401C160.612 12.3073 163.479 10.528 164.146 7.68593C164.813 4.8439 163.034 1.97715 160.192 1.30989C157.35 0.642632 154.483 2.42199 153.816 5.26402C153.148 8.13077 154.928 10.9728 157.77 11.6401Z" fill="#7CCEEB"/>
<path d="M170.621 10.9975C173.463 11.6647 176.33 9.88538 176.997 7.04335C177.664 4.20132 175.885 1.33457 173.043 0.667314C170.201 5.42402e-05 167.334 1.77941 166.667 4.62145C165.999 7.46348 167.779 10.3302 170.621 10.9975Z" fill="#7CCEEB"/>
<path d="M183.175 14.6799C186.017 15.3471 188.884 13.5678 189.551 10.7257C190.218 7.88369 188.439 5.01695 185.597 4.34969C182.755 3.68243 179.888 5.46179 179.221 8.30382C178.554 11.1459 180.333 14.0126 183.175 14.6799Z" fill="#7CCEEB"/>
<path d="M195.73 21.5995C198.572 22.2668 201.438 20.4874 202.106 17.6454C202.773 14.8034 200.994 11.9366 198.152 11.2694C195.309 10.6021 192.443 12.3815 191.775 15.2235C191.108 18.0655 192.888 20.9323 195.73 21.5995Z" fill="#7CCEEB"/>
<path d="M207.024 30.7682C209.866 31.4355 212.732 29.6561 213.4 26.8141C214.067 23.9721 212.287 21.1053 209.445 20.4381C206.603 19.7708 203.737 21.5502 203.069 24.3922C202.402 27.2342 204.182 30.101 207.024 30.7682Z" fill="#7CCEEB"/>
<path d="M217.873 40.2087C220.715 40.8759 223.581 39.0966 224.249 36.2545C224.916 33.4125 223.137 30.5458 220.295 29.8785C217.453 29.2112 214.586 30.9906 213.919 33.8326C213.251 36.6747 215.031 39.5414 217.873 40.2087Z" fill="#7CCEEB"/>
<path d="M229.636 45.8681C232.478 46.5353 235.345 44.756 236.012 41.914C236.68 39.0719 234.9 36.2052 232.058 35.5379C229.216 34.8707 226.349 36.65 225.682 39.4921C225.015 42.3341 226.794 45.2008 229.636 45.8681Z" fill="#7CCEEB"/>
<path d="M243.303 47.9687C246.145 48.6359 249.011 46.8566 249.679 44.0145C250.346 41.1725 248.567 38.3058 245.725 37.6385C242.883 36.9712 240.016 38.7506 239.349 41.5926C238.681 44.4347 240.461 47.3014 243.303 47.9687Z" fill="#7CCEEB"/>
<path d="M5.22755 8.4135L4.42334 43.0522L6.54811 43.1016L7.35232 8.46283L5.22755 8.4135Z" fill="#7CCEEB"/>
<path d="M18.7642 5.76067L17.96 40.3994L20.0847 40.4487L20.8889 5.81L18.7642 5.76067Z" fill="#7CCEEB"/>
<path d="M30.152 11.6575L29.5945 35.6724L31.7193 35.7217L32.2768 11.7068L30.152 11.6575Z" fill="#7CCEEB"/>
<path d="M52.0991 11.5744L51.5181 36.6023L53.6428 36.6516L54.2239 11.6238L52.0991 11.5744Z" fill="#7CCEEB"/>
<path d="M65.5444 7.69695L64.7402 42.3357L66.865 42.385L67.6692 7.74628L65.5444 7.69695Z" fill="#7CCEEB"/>
<path d="M77.7393 7.16862L76.9351 41.8074L79.0598 41.8567L79.864 7.21796L77.7393 7.16862Z" fill="#7CCEEB"/>
<path d="M90.4154 7.24798L89.6112 41.8867L91.736 41.936L92.5402 7.29731L90.4154 7.24798Z" fill="#7CCEEB"/>
<path d="M102.281 6.79582L101.477 41.4346L103.601 41.4839L104.406 6.84515L102.281 6.79582Z" fill="#7CCEEB"/>
<path d="M145.975 7.97137L145.171 42.6101L147.296 42.6594L148.1 8.0207L145.975 7.97137Z" fill="#7CCEEB"/>
<path d="M196.11 14.6406L195.701 32.1328L197.825 32.1825L198.235 14.6903L196.11 14.6406Z" fill="#7CCEEB"/>
<path d="M218.049 15.5583L217.64 33.0505L219.765 33.1002L220.174 15.608L218.049 15.5583Z" fill="#7CCEEB"/>
<path d="M158.524 7.36786L157.72 42.0066L159.845 42.0559L160.649 7.41719L158.524 7.36786Z" fill="#7CCEEB"/>
<path d="M170.972 6.43449L170.168 41.0732L172.293 41.1226L173.097 6.48383L170.972 6.43449Z" fill="#7CCEEB"/>
<path d="M183.495 7.27362L182.691 41.9124L184.816 41.9617L185.62 7.32295L183.495 7.27362Z" fill="#7CCEEB"/>
<path d="M230.302 7.74186L229.498 42.3806L231.622 42.4299L232.427 7.79119L230.302 7.74186Z" fill="#7CCEEB"/>
<path d="M243.432 8.10003L242.628 42.7388L244.753 42.7881L245.557 8.14936L243.432 8.10003Z" fill="#7CCEEB"/>
<path d="M112.619 32.3004L114.744 32.3498L115.09 17.5218L112.965 17.4724L112.619 32.3004Z" fill="#7CCEEB"/>
<path d="M134.391 32.5475L136.516 32.5969L136.862 17.7442L134.737 17.7195L134.391 32.5475Z" fill="#7CCEEB"/>
</g>
<defs>
<clipPath id="clip0_6_244">
<rect width="250" height="50.0692" fill="white"/>
</clipPath>
</defs>
</svg>
