<svg width="51" height="45" viewBox="0 0 51 45" fill="none" xmlns="http://www.w3.org/2000/svg">
<path d="M45.8738 43.8351L36.0989 28.5183L32.1864 36.9643C32.4219 38.1999 32.8799 39.4084 33.5865 40.5219C36.2952 44.7584 41.621 46.1163 45.8738 43.8215M5.6097 1.29302L4.77223 1.7547L4.69371 1.80901L4.57594 1.87691V1.90406L3.85624 2.54226C1.76256 4.30749 0.480181 6.76524 0.113787 9.37235C-0.252607 11.9523 0.257728 14.6816 1.76256 17.0307C3.26739 19.3799 5.47884 20.9414 7.92583 21.5932C9.02501 21.8919 10.1765 22.0005 11.315 21.9191L12.4403 19.4885C11.1187 19.8008 9.7578 19.7736 8.47542 19.4206C6.53877 18.9046 4.77223 17.6689 3.58145 15.7951C2.39066 13.9212 1.98501 11.7622 2.2729 9.69824C2.50843 8.01448 3.21505 6.41219 4.35349 5.12222L12.8983 18.5108L14.9527 14.057L7.72955 2.7731C9.33907 2.17564 11.0533 2.10775 12.6497 2.52868C14.6125 3.04468 16.3922 4.28034 17.596 6.16778C17.8185 6.52082 18.0148 6.87387 18.1849 7.24049C18.6036 6.52082 19.0747 5.86904 19.6112 5.258C19.5458 5.14937 19.4803 5.04074 19.4018 4.93212C17.8708 2.55584 15.6332 0.980713 13.1731 0.342514C10.7 -0.309263 7.99126 -0.0376895 5.6097 1.29302ZM32.3565 7.30839C33.1678 7.67501 33.8875 8.17742 34.5025 8.78847L20.4225 16.1753L22.4638 11.3277C24.1126 7.40344 28.5748 5.59747 32.3565 7.32197M33.0893 4.94569C28.3 2.55584 22.5031 4.67412 20.2 9.64392L16.2613 18.1442L33.6781 26.821L37.6168 18.3207C39.9199 13.3509 37.8785 7.33554 33.0893 4.94569ZM32.435 29.5096L27.9205 39.2591C25.6174 44.2289 19.8206 46.3471 15.0313 43.9573C10.242 41.5674 8.20063 35.5521 10.5037 30.5823L15.0182 20.8328L32.435 29.5096ZM37.0934 26.3865C41.3462 24.0645 46.6982 25.4224 49.42 29.6725C52.1417 33.9362 51.2519 39.6121 47.4833 42.7624L37.0672 26.4544L37.0934 26.3865Z" fill="white"/>
</svg>
