<svg width="109" height="77" viewBox="0 0 109 77" fill="none" xmlns="http://www.w3.org/2000/svg">
<g clip-path="url(#clip0_4_78)">
<path d="M1.48355 51.1559L5.9994 43.4123H15.0311L19.547 51.1559L15.0311 58.8994H5.9994L1.48355 51.1559ZM5.26578 42.154L0 51.1559L5.24948 60.1578H15.7647L21.0142 51.1559L15.7647 42.154H5.24948H5.26578Z" fill="#7CCEEB"/>
<path d="M1.4836 67.9981L5.99946 60.2707H15.0312L19.547 67.9981L15.0312 75.7417H5.99946L1.4836 67.9981ZM5.26583 58.9962L0.0163574 67.9981L5.26583 77H15.7811L21.0306 67.9981L15.7811 58.9962H5.24953H5.26583Z" fill="#7CCEEB"/>
<path d="M30.535 33.6844H20.0197L14.7703 42.6863L20.0197 51.6882H30.535L35.7845 42.6863L30.535 33.6844ZM29.8014 34.9589L34.3172 42.7025L29.8014 50.446H20.7697L16.2538 42.7025L20.7697 34.9589H29.8014Z" fill="#7CCEEB"/>
<path d="M16.2538 9.00189L20.7697 1.27446H29.8014L34.3172 9.00189L29.8014 16.7454H20.7697L16.2538 9.00189ZM20.0197 0L14.7703 9.00189L20.0197 18.0038H30.535L35.7845 9.00189L30.535 0H20.0197Z" fill="#7CCEEB"/>
<path d="M34.9531 59.5286L30.0623 51.1559L34.9531 42.7831H44.7184L49.6092 51.1559L44.7184 59.5286H34.9531Z" fill="#7CCEEB"/>
<path d="M45.0933 42.154H34.5781L29.3286 51.1559L34.5781 60.1578H45.0933L50.3428 51.1559L45.0933 42.154ZM44.3597 43.4285L48.8756 51.172L44.3597 58.9156H35.328L30.8122 51.172L35.328 43.4285H44.3597Z" fill="#7CCEEB"/>
<path d="M45.0933 8.46954H34.5781L29.3286 17.4714L34.5781 26.4733H45.0933L50.3428 17.4714L45.0933 8.46954ZM44.3597 9.744L48.8756 17.4876L44.3597 25.215H35.328L30.8122 17.4876L35.328 9.744H44.3597Z" fill="#7CCEEB"/>
<path d="M45.0933 25.3118H34.5781L29.3286 34.3137L34.5781 43.3155H45.0933L50.3428 34.3137L45.0933 25.3118ZM44.3597 26.5862L48.8756 34.3298L44.3597 42.0733H35.328L30.8122 34.3298L35.328 26.5862H44.3597Z" fill="#7CCEEB"/>
<path d="M59.8636 33.6844H49.3484L44.0989 42.6863L49.3484 51.6882H59.8636L65.1131 42.6863L59.8636 33.6844ZM59.13 34.9589L63.6458 42.7025L59.13 50.446H50.0983L45.5824 42.7025L50.0983 34.9589H59.13Z" fill="#7CCEEB"/>
<path d="M45.5824 9.00189L50.0983 1.27446H59.13L63.6458 9.00189L59.13 16.7454H50.0983L45.5824 9.00189ZM49.3484 0L44.0989 9.00189L49.3484 18.0038H59.8636L65.1131 9.00189L59.8636 0H49.3484Z" fill="#7CCEEB"/>
<path d="M49.7233 34.2168L44.8325 25.8441L49.7233 17.4714H59.4887L64.3795 25.8441L59.4887 34.2168H49.7233Z" fill="#7CCEEB"/>
<path d="M59.8636 16.8422H49.3484L44.0989 25.8441L49.3484 34.846H59.8636L65.1131 25.8441L59.8636 16.8422ZM59.13 18.1167L63.6458 25.8602L59.13 33.6038H50.0983L45.5824 25.8602L50.0983 18.1167H59.13Z" fill="#7CCEEB"/>
<path d="M74.422 42.154H63.9067L58.6572 51.1559L63.9067 60.1578H74.422L79.6714 51.1559L74.422 42.154ZM73.6883 43.4285L78.2042 51.172L73.6883 58.9156H64.6566L60.1408 51.172L64.6566 43.4285H73.6883Z" fill="#7CCEEB"/>
<path d="M60.1408 67.9981L64.6566 60.2707H73.6883L78.2042 67.9981L73.6883 75.7417H64.6566L60.1408 67.9981ZM63.9067 58.9962L58.6572 67.9981L63.9067 77H74.422L79.6714 67.9981L74.422 58.9962H63.9067Z" fill="#7CCEEB"/>
<path d="M89.1922 50.5267H78.677L73.4275 59.5286L78.677 68.5305H89.1922L94.4417 59.5286L89.1922 50.5267ZM88.4586 51.8012L92.9745 59.5448L88.4586 67.2883H79.4269L74.911 59.5448L79.4269 51.8012H88.4586Z" fill="#7CCEEB"/>
<path d="M89.453 67.9981L93.9689 60.2707H103.001L107.516 67.9981L103.001 75.7417H93.9689L89.453 67.9981ZM93.219 58.9962L87.9695 67.9981L93.219 77H103.734L108.984 67.9981L103.734 58.9962H93.219Z" fill="#7CCEEB"/>
</g>
<defs>
<clipPath id="clip0_4_78">
<rect width="109" height="77" fill="white"/>
</clipPath>
</defs>
</svg>
