<svg width="67" height="47" viewBox="0 0 67 47" fill="none" xmlns="http://www.w3.org/2000/svg">
<g opacity="0.6">
<g clip-path="url(#clip0_328_20)">
<path d="M0.905542 31.225L3.66197 26.4984H9.17483L11.9313 31.225L9.17483 35.9516H3.66197L0.905542 31.225ZM3.21418 25.7303L0 31.225L3.20423 36.7197H9.62263L12.8269 31.225L9.62263 25.7303H3.20423H3.21418Z" fill="#7CCEEB"/>
<path d="M0.905357 41.5053L3.66179 36.7886H9.17465L11.9311 41.5053L9.17465 46.2319H3.66179L0.905357 41.5053ZM3.21399 36.0107L0.00976562 41.5053L3.21399 47H9.63239L12.8366 41.5053L9.63239 36.0107H3.20404H3.21399Z" fill="#7CCEEB"/>
<path d="M18.6383 20.5607H12.2199L9.01562 26.0553L12.2199 31.55H18.6383L21.8425 26.0553L18.6383 20.5607ZM18.1905 21.3386L20.9469 26.0652L18.1905 30.7918H12.6776L9.92117 26.0652L12.6776 21.3386H18.1905Z" fill="#7CCEEB"/>
<path d="M9.92117 5.49466L12.6776 0.777918H18.1905L20.9469 5.49466L18.1905 10.2212H12.6776L9.92117 5.49466ZM12.2199 0L9.01562 5.49466L12.2199 10.9893H18.6383L21.8425 5.49466L18.6383 0H12.2199Z" fill="#7CCEEB"/>
<path d="M21.3349 36.3356L18.3496 31.225L21.3349 26.1144H27.2956L30.2809 31.225L27.2956 36.3356H21.3349Z" fill="#7CCEEB"/>
<path d="M27.5245 25.7303H21.1061L17.9019 31.225L21.1061 36.7197H27.5245L30.7287 31.225L27.5245 25.7303ZM27.0767 26.5083L29.8331 31.2349L27.0767 35.9614H21.5638L18.8074 31.2349L21.5638 26.5083H27.0767Z" fill="#7CCEEB"/>
<path d="M27.5245 5.16968H21.1061L17.9019 10.6643L21.1061 16.159H27.5245L30.7287 10.6643L27.5245 5.16968ZM27.0767 5.9476L29.8331 10.6742L27.0767 15.3909H21.5638L18.8074 10.6742L21.5638 5.9476H27.0767Z" fill="#7CCEEB"/>
<path d="M27.5245 15.45H21.1061L17.9019 20.9447L21.1061 26.4393H27.5245L30.7287 20.9447L27.5245 15.45ZM27.0767 16.2279L29.8331 20.9545L27.0767 25.6811H21.5638L18.8074 20.9545L21.5638 16.2279H27.0767Z" fill="#7CCEEB"/>
<path d="M36.5401 20.5607H30.1217L26.9175 26.0553L30.1217 31.55H36.5401L39.7443 26.0553L36.5401 20.5607ZM36.0923 21.3386L38.8487 26.0652L36.0923 30.7918H30.5795L27.823 26.0652L30.5795 21.3386H36.0923Z" fill="#7CCEEB"/>
<path d="M27.823 5.49466L30.5795 0.777918H36.0923L38.8487 5.49466L36.0923 10.2212H30.5795L27.823 5.49466ZM30.1217 0L26.9175 5.49466L30.1217 10.9893H36.5401L39.7443 5.49466L36.5401 0H30.1217Z" fill="#7CCEEB"/>
<path d="M30.3505 20.8856L27.3652 15.775L30.3505 10.6644H36.3112L39.2965 15.775L36.3112 20.8856H30.3505Z" fill="#7CCEEB"/>
<path d="M36.5401 10.2803H30.1217L26.9175 15.775L30.1217 21.2697H36.5401L39.7443 15.775L36.5401 10.2803ZM36.0923 11.0583L38.8487 15.7848L36.0923 20.5114H30.5795L27.823 15.7848L30.5795 11.0583H36.0923Z" fill="#7CCEEB"/>
<path d="M45.4263 25.7303H39.0079L35.8037 31.225L39.0079 36.7197H45.4263L48.6306 31.225L45.4263 25.7303ZM44.9785 26.5083L47.735 31.2349L44.9785 35.9614H39.4657L36.7093 31.2349L39.4657 26.5083H44.9785Z" fill="#7CCEEB"/>
<path d="M36.7093 41.5053L39.4657 36.7886H44.9785L47.735 41.5053L44.9785 46.2319H39.4657L36.7093 41.5053ZM39.0079 36.0107L35.8037 41.5053L39.0079 47H45.4263L48.6306 41.5053L45.4263 36.0107H39.0079Z" fill="#7CCEEB"/>
<path d="M54.442 30.841H48.0236L44.8193 36.3357L48.0236 41.8303H54.442L57.6462 36.3357L54.442 30.841ZM53.9942 31.6189L56.7506 36.3455L53.9942 41.0721H48.4813L45.7249 36.3455L48.4813 31.6189H53.9942Z" fill="#7CCEEB"/>
<path d="M54.6013 41.5053L57.3578 36.7886H62.8706L65.6271 41.5053L62.8706 46.2319H57.3578L54.6013 41.5053ZM56.9 36.0107L53.6958 41.5053L56.9 47H63.3184L66.5227 41.5053L63.3184 36.0107H56.9Z" fill="#7CCEEB"/>
</g>
</g>
<defs>
<clipPath id="clip0_328_20">
<rect width="66.5325" height="47" fill="white"/>
</clipPath>
</defs>
</svg>
