<svg width="119" height="119" viewBox="0 0 119 119" fill="none" xmlns="http://www.w3.org/2000/svg">
<g clip-path="url(#clip0_6_140)">
<path d="M39.6748 56.3557C48.0759 56.3557 54.8745 49.5571 54.8745 41.1559C54.8745 32.7548 48.0759 25.9562 39.6748 25.9562C31.2736 25.9562 24.475 32.7548 24.475 41.1559C24.475 49.5571 31.2736 56.3557 39.6748 56.3557Z" fill="#7CCEEB"/>
<path d="M48.9257 99.1627C57.3269 99.1627 64.1255 92.3641 64.1255 83.9629C64.1255 75.5618 57.3269 68.7632 48.9257 68.7632C40.5246 68.7632 33.726 75.5618 33.726 83.9629C33.726 92.3641 40.5246 99.1627 48.9257 99.1627Z" fill="#7CCEEB"/>
<path d="M88.5762 60.8233C96.9773 60.8233 103.776 54.0247 103.776 45.6236C103.776 37.2224 96.9773 30.4238 88.5762 30.4238C80.1751 30.4238 73.3764 37.2224 73.3764 45.6236C73.3764 54.0247 80.1751 60.8233 88.5762 60.8233Z" fill="#7CCEEB"/>
<path d="M76.363 23.1396C80.5636 23.1396 83.9629 19.7403 83.9629 15.5397C83.9629 11.3391 80.5636 7.93982 76.363 7.93982C72.1624 7.93982 68.7631 11.3391 68.7631 15.5397C68.7631 19.7403 72.1624 23.1396 76.363 23.1396Z" fill="#7CCEEB"/>
<path d="M111.4 33.726C115.601 33.726 119 30.3267 119 26.1261C119 21.9256 115.601 18.5262 111.4 18.5262C107.2 18.5262 103.8 21.9256 103.8 26.1261C103.8 30.3267 107.2 33.726 111.4 33.726Z" fill="#7CCEEB"/>
<path d="M111.4 76.023C115.601 76.023 119 72.6237 119 68.4231C119 64.2226 115.601 60.8232 111.4 60.8232C107.2 60.8232 103.8 64.2226 103.8 68.4231C103.8 72.6237 107.2 76.023 111.4 76.023Z" fill="#7CCEEB"/>
<path d="M79.6652 85.4439C83.8658 85.4439 87.265 82.0446 87.265 77.844C87.265 73.6434 83.8658 70.2441 79.6652 70.2441C75.4646 70.2441 72.0653 73.6434 72.0653 77.844C72.0653 82.0446 75.4646 85.4439 79.6652 85.4439Z" fill="#7CCEEB"/>
<path d="M63.13 119C67.3305 119 70.7298 115.601 70.7298 111.4C70.7298 107.2 67.3305 103.8 63.13 103.8C58.9294 103.8 55.5301 107.2 55.5301 111.4C55.5301 115.601 58.9294 119 63.13 119Z" fill="#7CCEEB"/>
<path d="M20.8329 113.197C25.0335 113.197 28.4328 109.798 28.4328 105.597C28.4328 101.396 25.0335 97.9971 20.8329 97.9971C16.6323 97.9971 13.233 101.396 13.233 105.597C13.233 109.798 16.6323 113.197 20.8329 113.197Z" fill="#7CCEEB"/>
<path d="M20.153 74.032C24.3536 74.032 27.7529 70.6327 27.7529 66.4322C27.7529 62.2316 24.3536 58.8323 20.153 58.8323C15.9525 58.8323 12.5532 62.2316 12.5532 66.4322C12.5532 70.6327 15.9525 74.032 20.153 74.032Z" fill="#7CCEEB"/>
<path d="M7.59988 36.3726C11.8004 36.3726 15.1998 32.9733 15.1998 28.7727C15.1998 24.5722 11.8004 21.1729 7.59988 21.1729C3.39931 21.1729 0 24.5722 0 28.7484C0 32.9247 3.39931 36.3483 7.59988 36.3483" fill="#7CCEEB"/>
<path d="M38.0237 15.1998C42.2242 15.1998 45.6235 11.8004 45.6235 7.59988C45.6235 3.39931 42.2 0 38.0237 0C33.8474 0 30.4238 3.39931 30.4238 7.59988C30.4238 11.8004 33.8231 15.1998 38.0237 15.1998Z" fill="#7CCEEB"/>
<path d="M78.6697 40.4761H48.2701V43.7783H78.6697V40.4761Z" fill="#7CCEEB"/>
<path d="M42.9261 44.9595L39.6738 45.5317L44.9422 75.4712L48.1944 74.899L42.9261 44.9595Z" fill="#7CCEEB"/>
<path d="M77.658 17.3498L74.69 18.7974L88.0163 46.1203L90.9842 44.6727L77.658 17.3498Z" fill="#7CCEEB"/>
<path d="M111.071 26.0627L85.2827 42.1584L87.0311 44.9598L112.82 28.864L111.071 26.0627Z" fill="#7CCEEB"/>
<path d="M88.1644 45.7709L85.954 48.2241L108.538 68.5732L110.749 66.12L88.1644 45.7709Z" fill="#7CCEEB"/>
<path d="M10.9488 29.2423L9.92785 32.3827L38.8379 41.7817L39.8588 38.6413L10.9488 29.2423Z" fill="#7CCEEB"/>
<path d="M40.5806 9.15606L37.2805 9.27246L38.352 39.6531L41.6521 39.5367L40.5806 9.15606Z" fill="#7CCEEB"/>
<path d="M17.961 66.1126L16.5135 69.0806L43.8363 82.4068L45.2839 79.4389L17.961 66.1126Z" fill="#7CCEEB"/>
<path d="M49.8482 82.7986L46.9325 84.3489L61.2042 111.19L64.1199 109.64L49.8482 82.7986Z" fill="#7CCEEB"/>
<path d="M43.1184 85.4534L19.8277 104.99L21.9498 107.52L45.2406 87.9834L43.1184 85.4534Z" fill="#7CCEEB"/>
<path d="M80.9627 78.1599L50.7292 81.3323L51.0738 84.6164L81.3073 81.4441L80.9627 78.1599Z" fill="#7CCEEB"/>
</g>
<defs>
<clipPath id="clip0_6_140">
<rect width="119" height="119" fill="white"/>
</clipPath>
</defs>
</svg>
