<svg width="255" height="83" viewBox="0 0 255 83" fill="none" xmlns="http://www.w3.org/2000/svg">
<path d="M218.274 53.6403V51.6776H213.024V53.869H215.58V54.3835C215.58 55.0885 215.403 55.6793 214.951 56.1747C214.499 56.6511 213.83 56.937 213.024 56.937C212.277 56.937 211.687 56.6702 211.294 56.2319C210.763 55.6602 210.626 55.0314 210.626 52.4398C210.626 49.8482 210.763 49.2384 211.294 48.6667C211.687 48.2285 212.277 47.9426 213.024 47.9426C214.4 47.9426 215.207 48.9716 215.521 50.2293H218.254C217.88 47.9617 216.249 45.5988 213.024 45.5988C211.471 45.5988 210.252 46.1323 209.289 47.0661C207.893 48.419 207.932 50.0959 207.932 52.4207C207.932 54.7455 207.893 56.4225 209.289 57.7754C210.272 58.7091 211.51 59.2427 213.024 59.2427C214.538 59.2427 215.836 58.8235 216.937 57.7182C217.9 56.7273 218.254 55.5649 218.254 53.6213M227.121 50.3627C226.433 49.6958 225.725 49.448 224.762 49.448C223.661 49.448 222.638 49.9244 222.127 50.6104V49.5624H220.181V59.1284H222.166V53.3164C222.166 52.0015 223.051 51.1631 224.132 51.1631C224.821 51.1631 225.155 51.3727 225.607 51.811L227.101 50.3627H227.121ZM235.496 54.3454C235.496 52.7447 235.26 51.5251 234.336 50.5914C233.688 49.9435 232.724 49.448 231.368 49.448C230.011 49.448 229.067 49.9435 228.419 50.5914C227.494 51.5251 227.259 52.7447 227.259 54.3454C227.259 55.9461 227.494 57.1847 228.419 58.1184C229.067 58.7663 230.011 59.2618 231.368 59.2618C232.724 59.2618 233.688 58.7663 234.336 58.1184C235.26 57.1847 235.496 55.9651 235.496 54.3454ZM233.511 54.3454C233.511 55.3934 233.432 56.3843 232.823 56.9751C232.449 57.3371 231.938 57.5467 231.368 57.5467C230.797 57.5467 230.306 57.3371 229.932 56.9751C229.323 56.3843 229.244 55.3934 229.244 54.3454C229.244 53.2973 229.323 52.3064 229.932 51.7157C230.306 51.3536 230.797 51.1631 231.368 51.1631C231.938 51.1631 232.469 51.3536 232.823 51.7157C233.432 52.3064 233.511 53.2973 233.511 54.3454ZM244.934 59.1474V49.5814H242.948V55.4125C242.948 56.8798 242.024 57.5467 240.903 57.5467C239.782 57.5467 238.917 56.8988 238.917 55.4125V49.5814H236.932V55.6983C236.932 56.7845 237.168 57.6801 237.934 58.4043C238.524 58.9569 239.35 59.2808 240.372 59.2808C241.395 59.2808 242.319 58.9188 243.007 58.2137V59.1855H244.953L244.934 59.1474ZM255 54.3454C255 52.8971 254.882 51.2774 253.899 50.3055C253.348 49.772 252.483 49.448 251.481 49.448C250.419 49.448 249.613 49.7148 248.866 50.5914V49.5814H246.919V63.0158H248.905V58.1565C249.632 58.995 250.439 59.2427 251.5 59.2427C252.483 59.2427 253.348 58.9188 253.899 58.3852C254.882 57.4134 255 55.7746 255 54.3263M253.014 54.3263C253.014 56.0223 252.759 57.5086 250.969 57.5086C249.18 57.5086 248.905 56.0223 248.905 54.3263C248.905 52.6304 249.18 51.1631 250.969 51.1631C252.759 51.1631 253.014 52.6304 253.014 54.3263Z" fill="white"/>
<path d="M129.486 59.0903V45.6559H126.772V51.144H122.074V45.6559H119.36V59.0903H122.074V53.4688H126.772V59.0903H129.486ZM139.768 54.8599V54.0214C139.768 51.2964 138.235 49.4099 135.58 49.4099C132.926 49.4099 131.393 51.2012 131.393 54.2882C131.393 57.9279 133.359 59.2046 135.836 59.2046C137.566 59.2046 138.53 58.6901 139.532 57.7182L138.274 56.5749C137.566 57.2609 136.996 57.5658 135.875 57.5658C134.263 57.5658 133.359 56.5177 133.359 54.8789H139.768V54.8599ZM137.802 53.526H133.359C133.359 52.9352 133.418 52.6494 133.614 52.2302C133.929 51.5061 134.637 51.0297 135.58 51.0297C136.524 51.0297 137.212 51.8491 137.527 52.5732C137.723 53.0115 137.782 52.9543 137.802 53.545M148.104 59.1093V52.7066C148.104 50.5342 146.748 49.429 144.035 49.429C142.403 49.429 141.42 49.7529 140.496 50.801L141.793 51.9825C142.344 51.2964 142.875 51.0487 143.956 51.0487C145.489 51.0487 146.119 51.6394 146.119 52.84V53.526H143.504C141.243 53.526 140.102 54.6693 140.102 56.2891C140.102 57.1085 140.378 57.8326 140.889 58.3471C141.498 58.9378 142.304 59.2237 143.543 59.2237C144.782 59.2237 145.45 58.9378 146.178 58.2327V59.1093H148.124H148.104ZM146.119 55.6602C146.119 56.3462 145.981 56.7845 145.686 57.0703C145.155 57.5658 144.585 57.623 143.838 57.623C142.599 57.623 142.029 57.1275 142.029 56.27C142.029 55.4125 142.639 54.898 143.799 54.898H146.119V55.6793V55.6602ZM153.865 59.1093V57.4705H152.98C152.174 57.4705 151.899 57.0894 151.899 56.3653V45.675H149.913V56.4796C149.913 57.8897 150.739 59.1284 152.626 59.1284H153.845L153.865 59.1093ZM158.996 59.1093V57.4705H158.171C157.424 57.4705 157.07 57.0513 157.07 56.3653V51.2012H158.977V49.7339H157.07V46.8183H155.084V49.7339H153.963V51.2012H155.084V56.4606C155.084 57.8326 155.949 59.1284 157.797 59.1284H158.977L158.996 59.1093ZM168.709 59.1093V52.9352C168.709 50.8582 167.49 49.429 165.288 49.429C164.305 49.429 163.42 49.791 162.732 50.4961V45.6559H160.746V59.0903H162.732V53.2211C162.732 51.7919 163.636 51.1249 164.737 51.1249C165.838 51.1249 166.723 51.7728 166.723 53.2211V59.0903H168.709V59.1093ZM177.753 57.8707L176.396 56.613C175.767 57.28 175.295 57.5277 174.509 57.5277C173.722 57.5277 173.113 57.2228 172.68 56.6702C172.248 56.1366 172.09 55.4506 172.09 54.3263C172.09 53.202 172.248 52.5351 172.68 52.0015C173.113 51.4489 173.742 51.144 174.509 51.144C175.276 51.144 175.767 51.3917 176.396 52.0587L177.753 50.7819C176.809 49.8291 175.865 49.448 174.509 49.448C172.287 49.448 170.105 50.7438 170.105 54.3263C170.105 57.9088 172.287 59.2427 174.509 59.2427C175.865 59.2427 176.829 58.8425 177.753 57.8897M186.384 59.1284V52.7256C186.384 50.5533 185.027 49.448 182.314 49.448C180.682 49.448 179.699 49.772 178.775 50.82L180.073 52.0015C180.623 51.3155 181.134 51.0678 182.235 51.0678C183.769 51.0678 184.398 51.6585 184.398 52.859V53.545H181.783C179.522 53.545 178.382 54.6884 178.382 56.3081C178.382 57.1275 178.657 57.8516 179.168 58.3661C179.778 58.9569 180.584 59.2427 181.823 59.2427C183.061 59.2427 183.73 58.9569 184.457 58.2518V59.1284H186.404H186.384ZM184.398 55.6793C184.398 56.3653 184.26 56.8036 183.966 57.0894C183.435 57.5849 182.884 57.642 182.117 57.642C180.879 57.642 180.309 57.1466 180.309 56.2891C180.309 55.4315 180.918 54.917 182.078 54.917H184.398V55.6983V55.6793ZM195.212 50.3627C194.523 49.6958 193.816 49.4671 192.852 49.4671C191.751 49.4671 190.729 49.9435 190.218 50.6104V49.5624H188.271V59.1284H190.257V53.3164C190.257 52.0015 191.161 51.1631 192.223 51.1631C192.911 51.1631 193.245 51.3727 193.698 51.8109L195.192 50.3627H195.212ZM203.292 54.917V54.0786C203.292 51.3536 201.759 49.4671 199.104 49.4671C196.45 49.4671 194.917 51.2583 194.917 54.3454C194.917 57.985 196.883 59.2618 199.36 59.2618C201.09 59.2618 202.053 58.7473 203.056 57.7754L201.798 56.6321C201.09 57.3181 200.52 57.623 199.399 57.623C197.787 57.623 196.883 56.5749 196.883 54.9361H203.292V54.917ZM201.326 53.5831H196.883C196.902 52.9924 196.942 52.7066 197.138 52.2873C197.453 51.5632 198.18 51.0868 199.104 51.0868C200.028 51.0868 200.736 51.5823 201.051 52.2873C201.247 52.7256 201.306 53.0115 201.326 53.5831Z" fill="white"/>
<path d="M59.1198 59.0903V45.6559H56.4066V53.888L50.9212 45.6559H48.5029V59.0903H51.2161V50.8391L56.7015 59.0903H59.1198ZM68.4193 59.0903V52.6875C68.4193 50.5152 67.0627 49.4099 64.3495 49.4099C62.7177 49.4099 61.7346 49.7339 60.8106 50.7819L62.1082 51.9634C62.6587 51.2774 63.1895 51.0487 64.2709 51.0487C65.8044 51.0487 66.4336 51.6395 66.4336 52.84V53.526H63.8187C61.5577 53.526 60.4174 54.6693 60.4174 56.2891C60.4174 57.1085 60.6926 57.8326 61.2038 58.3471C61.8133 58.9378 62.6194 59.2237 63.858 59.2237C65.0966 59.2237 65.7651 58.9378 66.4925 58.2328V59.1093H68.439L68.4193 59.0903ZM66.4336 55.6412C66.4336 56.3272 66.2959 56.7845 66.001 57.0513C65.4702 57.5467 64.9197 57.6039 64.1529 57.6039C62.9143 57.6039 62.3441 57.1085 62.3441 56.251C62.3441 55.3934 62.9536 54.8789 64.1136 54.8789H66.4336V55.6602V55.6412ZM74.8287 59.0903V57.4515H74.0029C73.2558 57.4515 72.9019 57.0322 72.9019 56.3462V51.1821H74.809V49.7148H72.9019V46.7993H70.9162V49.7148H69.7759V51.1821H70.9162V56.4415C70.9162 57.8135 71.7813 59.1093 73.6294 59.1093H74.809L74.8287 59.0903ZM78.6232 45.5988H76.5195V47.6377H78.6232V45.5988ZM78.5642 49.5243H76.5785V59.0903H78.5642V49.5243ZM88.7092 54.3073C88.7092 52.7066 88.4733 51.487 87.5492 50.5533C86.9004 49.9054 85.937 49.4099 84.5804 49.4099C83.2238 49.4099 82.2801 49.9054 81.6313 50.5533C80.7073 51.487 80.4713 52.7066 80.4713 54.3073C80.4713 55.9079 80.7073 57.1466 81.6313 58.0803C82.2801 58.7282 83.2238 59.2237 84.5804 59.2237C85.937 59.2237 86.9004 58.7282 87.5492 58.0803C88.4929 57.1466 88.7092 55.927 88.7092 54.3073ZM86.7235 54.3073C86.7235 55.3553 86.6448 56.3462 86.0353 56.937C85.6618 57.299 85.1506 57.5086 84.5804 57.5086C84.0103 57.5086 83.5188 57.299 83.1452 56.937C82.5357 56.3462 82.4571 55.3553 82.4571 54.3073C82.4571 53.2592 82.5357 52.2683 83.1452 51.6776C83.5188 51.3155 84.0103 51.1249 84.5804 51.1249C85.1506 51.1249 85.6814 51.3155 86.0353 51.6776C86.6448 52.2683 86.7235 53.2592 86.7235 54.3073ZM98.6182 59.1093V52.9924C98.6182 51.9253 98.3823 51.0106 97.6155 50.2865C97.0257 49.7339 96.1999 49.4099 95.1776 49.4099C94.1552 49.4099 93.2312 49.772 92.543 50.4961V49.5243H90.5966V59.0903H92.5824V53.2592C92.5824 51.7919 93.5261 51.1249 94.6271 51.1249C95.7281 51.1249 96.6128 51.7728 96.6128 53.2592V59.0903H98.5986L98.6182 59.1093ZM108.154 59.1093V52.7066C108.154 50.5342 106.797 49.429 104.084 49.429C102.452 49.429 101.469 49.7529 100.545 50.801L101.843 51.9825C102.393 51.2964 102.904 51.0678 104.005 51.0678C105.539 51.0678 106.168 51.6585 106.168 52.859V53.545H103.553C101.292 53.545 100.152 54.6884 100.152 56.3081C100.152 57.1275 100.427 57.8516 100.938 58.3661C101.548 58.9569 102.354 59.2427 103.592 59.2427C104.831 59.2427 105.499 58.9569 106.227 58.2518V59.1284H108.173L108.154 59.1093ZM106.168 55.6602C106.168 56.3462 106.03 56.8036 105.735 57.0703C105.205 57.5658 104.634 57.623 103.887 57.623C102.649 57.623 102.078 57.1275 102.078 56.27C102.078 55.4125 102.688 54.898 103.848 54.898H106.168V55.6793V55.6602ZM114.307 59.1093V57.4705H113.423C112.617 57.4705 112.361 57.0894 112.361 56.3653V45.675H110.375V56.4796C110.375 57.8897 111.201 59.1284 113.089 59.1284H114.307V59.1093Z" fill="white"/>
<path d="M56.7211 77.6316L53.2019 68.3323H52.0222L48.5029 77.6316H50.0561L50.705 75.7641H54.4798L55.1483 77.6316H56.7015H56.7211ZM54.1063 74.5636H51.1571L52.6514 70.4475L54.1063 74.5636ZM62.639 77.6316V68.3323H61.2628V71.6671C60.7713 71.0954 60.2011 70.9239 59.4736 70.9239C58.7855 70.9239 58.1957 71.1526 57.8221 71.5146C57.134 72.1816 57.0554 73.3059 57.0554 74.3158C57.0554 75.3258 57.134 76.4501 57.8221 77.1171C58.1957 77.4791 58.8052 77.7078 59.4933 77.7078C60.2404 77.7078 60.7909 77.5172 61.3021 76.9265V77.6316H62.639ZM61.2628 74.3158C61.2628 75.4973 61.0858 76.5263 59.8472 76.5263C58.6086 76.5263 58.412 75.4973 58.412 74.3158C58.412 73.1344 58.6086 72.1244 59.8472 72.1244C61.0858 72.1244 61.2628 73.1344 61.2628 74.3158ZM69.54 77.6316V68.3323H68.1637V71.6671C67.6722 71.0954 67.102 70.9239 66.3746 70.9239C65.6864 70.9239 65.0966 71.1526 64.7231 71.5146C64.0349 72.1816 63.9563 73.3059 63.9563 74.3158C63.9563 75.3258 64.0349 76.4501 64.7231 77.1171C65.0966 77.4791 65.7061 77.7078 66.3942 77.7078C67.1413 77.7078 67.6918 77.5172 68.203 76.9265V77.6316H69.5596H69.54ZM68.1637 74.3158C68.1637 75.4973 67.9868 76.5263 66.7481 76.5263C65.5095 76.5263 65.3129 75.4973 65.3129 74.3158C65.3129 73.1344 65.5095 72.1244 66.7481 72.1244C67.9868 72.1244 68.1637 73.1344 68.1637 74.3158ZM72.8626 68.2942H71.4077V69.7043H72.8626V68.2942ZM72.8233 71.0001H71.447V77.6125H72.8233V71.0001ZM80.2747 77.6125V73.3821C80.2747 72.6389 80.1174 72.0101 79.5866 71.5146C79.1737 71.1335 78.6036 70.9049 77.8958 70.9049C77.188 70.9049 76.5588 71.1526 76.087 71.648V70.9811H74.7501V77.5934H76.1263V73.5536C76.1263 72.5437 76.7751 72.0863 77.5419 72.0863C78.3086 72.0863 78.9181 72.5246 78.9181 73.5536V77.5934H80.2944L80.2747 77.6125ZM87.3329 77.5744V71.0001H85.996V71.7052C85.4848 71.0954 84.9343 70.9239 84.2069 70.9239C83.5188 70.9239 82.9486 71.1335 82.575 71.4956C81.9066 72.1435 81.8083 73.0582 81.8083 74.1825C81.8083 75.3068 81.9262 76.2214 82.575 76.8693C82.9486 77.2314 83.5188 77.46 84.2069 77.46C84.895 77.46 85.4652 77.2695 85.9763 76.6978V77.5363C85.9763 78.4128 85.5241 79.2132 84.3838 79.2132C83.7154 79.2132 83.3418 79.0226 82.9093 78.6225L82.0245 79.4609C82.7323 80.1088 83.4008 80.3375 84.4428 80.3375C86.2516 80.3375 87.3723 79.156 87.3723 77.5363M85.996 74.1443C85.996 75.1924 85.8387 76.2214 84.6198 76.2214C83.4008 76.2214 83.2238 75.1924 83.2238 74.1443C83.2238 73.0963 83.3811 72.0673 84.6198 72.0673C85.8584 72.0673 85.996 73.0963 85.996 74.1443ZM97.3992 70.962H95.9247L94.3322 75.6116L92.7003 70.962H91.2454L93.6244 77.2695L93.2508 78.2985C93.0542 78.8321 92.8379 79.0036 92.2678 79.0036H91.9139V80.2041H92.4644C92.9952 80.2041 93.4868 80.0898 93.8603 79.7277C94.0569 79.5371 94.2339 79.2704 94.3518 78.9083L97.3599 70.9811L97.3992 70.962ZM103.573 74.6589V74.0681C103.573 72.1816 102.511 70.8858 100.683 70.8858C98.8541 70.8858 97.7925 72.1244 97.7925 74.2587C97.7925 76.774 99.149 77.6506 100.86 77.6506C102.059 77.6506 102.708 77.3076 103.415 76.6216L102.55 75.8213C102.059 76.2977 101.666 76.5073 100.899 76.5073C99.7782 76.5073 99.1687 75.7831 99.1687 74.6589H103.592H103.573ZM102.216 73.7251H99.1491C99.1491 73.3249 99.1884 73.1344 99.326 72.8295C99.5423 72.3341 100.034 71.991 100.683 71.991C101.331 71.991 101.823 72.3341 102.039 72.8295C102.177 73.1344 102.216 73.3249 102.216 73.7251ZM110.139 77.5744V73.1534C110.139 71.648 109.196 70.8858 107.328 70.8858C106.188 70.8858 105.519 71.1145 104.87 71.8386L105.775 72.658C106.148 72.1816 106.522 72.0101 107.269 72.0101C108.331 72.0101 108.763 72.4103 108.763 73.2487V73.7251H106.954C105.401 73.7251 104.595 74.5255 104.595 75.6307C104.595 76.1833 104.792 76.6978 105.126 77.0599C105.539 77.4601 106.109 77.6697 106.954 77.6697C107.8 77.6697 108.272 77.4791 108.783 76.9837V77.5744H110.12H110.139ZM108.763 75.1924C108.763 75.6688 108.665 75.9737 108.468 76.1643C108.095 76.5073 107.721 76.5454 107.19 76.5454C106.325 76.5454 105.932 76.2024 105.932 75.6116C105.932 75.0209 106.345 74.6589 107.151 74.6589H108.744V75.1924H108.763ZM116.765 71.5146C116.293 71.0573 115.802 70.8858 115.133 70.8858C114.366 70.8858 113.659 71.2098 113.324 71.6861V70.962H111.968V77.5744H113.344V73.5536C113.344 72.6389 113.954 72.0673 114.701 72.0673C115.173 72.0673 115.409 72.2197 115.723 72.5055L116.765 71.4956V71.5146ZM122.526 75.5545C122.526 74.373 121.779 73.8013 120.501 73.687L119.419 73.5917C118.692 73.5346 118.476 73.2297 118.476 72.8295C118.476 72.3341 118.888 71.972 119.714 71.972C120.363 71.972 120.972 72.1054 121.405 72.4484L122.27 71.5909C121.641 71.0573 120.756 70.8477 119.734 70.8477C118.299 70.8477 117.158 71.5718 117.158 72.8676C117.158 74.03 117.905 74.5826 119.183 74.697L120.284 74.7922C120.953 74.8494 121.208 75.1352 121.208 75.5735C121.208 76.2024 120.54 76.4882 119.714 76.4882C119.046 76.4882 118.299 76.3358 117.748 75.8022L116.844 76.6788C117.65 77.441 118.594 77.6316 119.714 77.6316C121.346 77.6316 122.545 76.9074 122.545 75.5354M132.277 74.2396C132.277 73.1344 132.12 72.2959 131.471 71.648C131.039 71.2098 130.351 70.8667 129.427 70.8667C128.503 70.8667 127.834 71.2098 127.382 71.648C126.733 72.2959 126.576 73.1344 126.576 74.2396C126.576 75.3449 126.733 76.2024 127.382 76.8503C127.834 77.2885 128.483 77.6316 129.427 77.6316C130.37 77.6316 131.039 77.2885 131.471 76.8503C132.12 76.2024 132.277 75.3639 132.277 74.2396ZM130.901 74.2396C130.901 74.9637 130.842 75.6498 130.429 76.0499C130.174 76.2977 129.82 76.431 129.427 76.431C129.033 76.431 128.68 76.2786 128.424 76.0499C128.011 75.6498 127.952 74.9447 127.952 74.2396C127.952 73.5346 128.011 72.8295 128.424 72.4293C128.68 72.1816 129.014 72.0482 129.427 72.0482C129.84 72.0482 130.174 72.1816 130.429 72.4293C130.842 72.8295 130.901 73.5346 130.901 74.2396ZM136.819 72.0673V71.0573H135.462V70.1045C135.462 69.6281 135.698 69.3423 136.21 69.3423H136.819V68.1989H135.954C134.676 68.1989 134.086 69.0946 134.086 70.0474V71.0573H133.3V72.0673H134.086V77.5553H135.462V72.0673H136.819ZM146.492 77.5553V73.2868C146.492 71.8577 145.647 70.8667 144.133 70.8667C143.464 70.8667 142.835 71.1145 142.363 71.6099V68.2752H140.987V77.5744H142.363V73.5155C142.363 72.5246 142.993 72.0673 143.759 72.0673C144.526 72.0673 145.136 72.5055 145.136 73.5155V77.5744H146.512L146.492 77.5553ZM153.786 74.6398V74.0491C153.786 72.1625 152.725 70.8667 150.896 70.8667C149.068 70.8667 148.006 72.1054 148.006 74.2396C148.006 76.755 149.363 77.6316 151.073 77.6316C152.272 77.6316 152.921 77.2886 153.629 76.6025L152.764 75.8022C152.272 76.2786 151.879 76.4882 151.112 76.4882C149.992 76.4882 149.382 75.7641 149.382 74.6398H153.806H153.786ZM152.43 73.7061H149.363C149.363 73.3059 149.402 73.1153 149.54 72.8104C149.756 72.315 150.247 71.972 150.896 71.972C151.545 71.972 152.036 72.315 152.233 72.8104C152.371 73.1153 152.41 73.3059 152.43 73.7061ZM160.353 77.5553V73.1344C160.353 71.629 159.409 70.8667 157.541 70.8667C156.401 70.8667 155.733 71.0954 155.084 71.8195L155.988 72.6389C156.362 72.1625 156.735 71.991 157.483 71.991C158.544 71.991 158.977 72.3912 158.977 73.2297V73.7061H157.168C155.615 73.7061 154.809 74.5064 154.809 75.6116C154.809 76.1643 155.005 76.6788 155.34 77.0408C155.752 77.441 156.323 77.6506 157.168 77.6506C158.013 77.6506 158.485 77.4601 158.977 76.9646V77.5553H160.314H160.353ZM158.977 75.1734C158.977 75.6498 158.878 75.9546 158.682 76.1452C158.308 76.4882 157.935 76.5263 157.404 76.5263C156.539 76.5263 156.146 76.1833 156.146 75.5926C156.146 75.0019 156.558 74.6398 157.365 74.6398H158.957V75.1734H158.977ZM164.875 77.5553V76.412H164.265C163.715 76.412 163.518 76.1452 163.518 75.6498V68.2561H162.142V75.726C162.142 76.6978 162.712 77.5553 164.01 77.5553H164.855H164.875ZM168.964 77.5553V76.412H168.394C167.883 76.412 167.647 76.1262 167.647 75.6498V72.0673H168.964V71.0573H167.647V69.0564H166.271V71.0573H165.484V72.0673H166.271V75.7069C166.271 76.6597 166.861 77.5553 168.139 77.5553H168.964ZM175.944 77.5553V73.2868C175.944 71.8577 175.099 70.8667 173.565 70.8667C172.897 70.8667 172.267 71.1145 171.796 71.6099V68.2752H170.419V77.5744H171.796V73.5155C171.796 72.5246 172.405 72.0673 173.191 72.0673C173.978 72.0673 174.568 72.5055 174.568 73.5155V77.5744H175.944V77.5553ZM182.943 70.943H181.469L179.876 75.5926L178.244 70.943H176.789L179.168 77.2504L178.795 78.2794C178.598 78.813 178.382 78.9845 177.812 78.9845H177.458V80.185H178.008C178.539 80.185 179.031 80.0707 179.404 79.7086C179.601 79.5181 179.758 79.2513 179.896 78.8892L182.904 70.962L182.943 70.943ZM189.451 77.5553V76.412H188.841C188.291 76.412 188.094 76.1452 188.094 75.6498V68.2561H186.718V75.726C186.718 76.6978 187.288 77.5553 188.586 77.5553H189.431H189.451ZM192.105 68.218H190.65V69.6281H192.105V68.218ZM192.066 70.9239H190.69V77.5363H192.066V70.9239ZM196.922 72.0673V71.0573H195.565V70.1045C195.565 69.6281 195.801 69.3423 196.312 69.3423H196.922V68.1989H196.057C194.779 68.1989 194.189 69.0946 194.189 70.0474V71.0573H193.403V72.0673H194.189V77.5553H195.565V72.0673H196.922ZM203.331 74.6207V74.03C203.331 72.1435 202.27 70.8477 200.441 70.8477C198.613 70.8477 197.551 72.0863 197.551 74.2206C197.551 76.7359 198.908 77.6125 200.618 77.6125C201.818 77.6125 202.466 77.2695 203.174 76.5835L202.309 75.7831C201.818 76.2595 201.424 76.4692 200.658 76.4692C199.537 76.4692 198.927 75.745 198.927 74.6207H203.351H203.331ZM201.975 73.687H198.908C198.908 73.2868 198.947 73.0963 199.085 72.7914C199.301 72.2959 199.792 71.9529 200.441 71.9529C201.09 71.9529 201.582 72.2959 201.778 72.7914C201.916 73.0963 201.955 73.2868 201.975 73.687Z" fill="white"/>
<path d="M6.36995 20.731L3.51914 24.0848C3.51914 24.0848 12.6221 25.3234 19.0511 33.8795C20.6043 32.6408 22.2362 31.4022 24.0056 30.1255C25.8538 28.8106 27.8002 27.591 29.8056 26.4477C24.9297 18.5395 18.8545 14.1186 13.841 12.0796L6.35029 20.731H6.36995Z" fill="white"/>
<path d="M0.786292 73.6679C0.511042 72.9057 0.275113 72.0672 0.0588445 71.1716C0.0588445 71.1716 -0.118102 82.0525 8.96517 82.7385C18.0484 83.4436 35.979 72.6008 36.3526 51.3917C36.4312 46.6087 35.8611 42.3021 34.878 38.4147C31.0049 39.9201 27.2693 41.6733 23.809 43.6932C24.9494 47.7711 25.5195 52.6494 25.2049 58.5758C24.4185 73.1153 10.8723 84.7965 3.69608 78.3366C3.5388 78.1842 3.38151 78.0317 3.22423 77.8793C3.22423 77.8793 3.22423 77.8793 3.20457 77.8602C2.73271 77.3648 2.30017 76.774 1.90696 76.1071C1.90696 76.1071 1.88729 76.069 1.86763 76.0499C1.74967 75.8594 1.65137 75.6688 1.5334 75.4592C1.49408 75.402 1.47442 75.3258 1.4351 75.2686C1.35645 75.0971 1.27781 74.9256 1.17951 74.7351C1.14019 74.6588 1.10086 74.5826 1.0812 74.5064C1.00256 74.3158 0.923918 74.1253 0.845275 73.9347C0.805953 73.8585 0.786292 73.7823 0.766632 73.7061" fill="white"/>
<path d="M32.0469 21.5694C34.6028 23.6465 40.678 20.731 45.6128 15.0333C50.5477 9.33561 52.4744 3.02814 49.8989 0.932006C47.343 -1.14507 41.2481 1.77046 36.3133 7.46814C31.3784 13.1658 29.4517 19.4733 32.0272 21.5694" fill="white"/>
<path d="M74.9073 15.4716C72.0172 15.8527 44.3545 19.8163 26.5615 32.5646C2.10357 50.0959 -0.550638 64.1782 0.0785061 71.4003C0.904258 75.3258 2.37881 77.1361 3.69609 78.3176C-1.06182 30.3922 86.3106 28.7153 86.3106 28.7153L84.4035 26.4477L74.8877 15.4525L74.9073 15.4716Z" fill="white"/>
</svg>
