<svg width="81" height="72" viewBox="0 0 81 72" fill="none" xmlns="http://www.w3.org/2000/svg">
<path d="M4.25908 70.6625L2.43521 66.0659H1.82386L0 70.6625H0.804944L1.14119 69.7394H3.09751L3.44394 70.6625H4.24889H4.25908ZM2.90392 69.146H1.37554L2.14992 67.1115L2.90392 69.146V69.146ZM7.32602 70.6625V66.0659H6.61278V67.7143C6.35805 67.4317 6.06256 67.3469 5.68556 67.3469C5.32894 67.3469 5.02327 67.46 4.82967 67.6389C4.47305 67.9686 4.43229 68.5243 4.43229 69.0235C4.43229 69.5228 4.47305 70.0785 4.82967 70.4082C5.02327 70.5871 5.33913 70.7002 5.69575 70.7002C6.08294 70.7002 6.36824 70.606 6.63316 70.314V70.6625H7.32602V70.6625ZM6.61278 69.0235C6.61278 69.6075 6.52108 70.1162 5.87916 70.1162C5.23724 70.1162 5.13535 69.6075 5.13535 69.0235C5.13535 68.4396 5.23724 67.9403 5.87916 67.9403C6.52108 67.9403 6.61278 68.4396 6.61278 69.0235ZM10.9024 70.6625V66.0659H10.1892V67.7143C9.93445 67.4317 9.63896 67.3469 9.26196 67.3469C8.90534 67.3469 8.59967 67.46 8.40607 67.6389C8.04945 67.9686 8.0087 68.5243 8.0087 69.0235C8.0087 69.5228 8.04945 70.0785 8.40607 70.4082C8.59967 70.5871 8.91553 70.7002 9.27216 70.7002C9.65934 70.7002 9.94464 70.606 10.2096 70.314V70.6625H10.9126H10.9024ZM10.1892 69.0235C10.1892 69.6075 10.0975 70.1162 9.45556 70.1162C8.81364 70.1162 8.71175 69.6075 8.71175 69.0235C8.71175 68.4396 8.81364 67.9403 9.45556 67.9403C10.0975 67.9403 10.1892 68.4396 10.1892 69.0235ZM12.6244 66.0471H11.8704V66.7441H12.6244V66.0471ZM12.604 67.3846H11.8908V70.6531H12.604V67.3846ZM16.4657 70.6531V68.562C16.4657 68.1947 16.3842 67.8838 16.1091 67.6389C15.8951 67.4505 15.5996 67.3375 15.2328 67.3375C14.866 67.3375 14.54 67.46 14.2954 67.7049V67.3752H13.6026V70.6436H14.3158V68.6468C14.3158 68.1476 14.652 67.9215 15.0494 67.9215C15.4468 67.9215 15.7627 68.1381 15.7627 68.6468V70.6436H16.4759L16.4657 70.6531ZM20.1236 70.6342V67.3846H19.4308V67.7331C19.1659 67.4317 18.8806 67.3469 18.5036 67.3469C18.1469 67.3469 17.8514 67.4505 17.6579 67.6295C17.3114 67.9498 17.2605 68.4019 17.2605 68.9576C17.2605 69.5133 17.3216 69.9655 17.6579 70.2857C17.8514 70.4647 18.1469 70.5777 18.5036 70.5777C18.8602 70.5777 19.1557 70.4835 19.4206 70.2009V70.6154C19.4206 71.0487 19.1862 71.4443 18.5953 71.4443C18.2488 71.4443 18.0552 71.3501 17.8311 71.1523L17.3726 71.5667C17.7394 71.887 18.0858 72 18.6258 72C19.5632 72 20.144 71.416 20.144 70.6154M19.4308 68.9388C19.4308 69.4568 19.3493 69.9655 18.7175 69.9655C18.0858 69.9655 17.9941 69.4568 17.9941 68.9388C17.9941 68.4207 18.0756 67.9121 18.7175 67.9121C19.3594 67.9121 19.4308 68.4207 19.4308 68.9388ZM25.3405 67.3658H24.5763L23.751 69.6641L22.9053 67.3658H22.1513L23.3842 70.4835L23.1906 70.9922C23.0887 71.2559 22.9766 71.3407 22.6811 71.3407H22.4977V71.9341H22.783C23.0581 71.9341 23.3128 71.8776 23.5064 71.6986C23.6083 71.6044 23.7 71.4725 23.7612 71.2936L25.3201 67.3752L25.3405 67.3658ZM28.5399 69.1931V68.9011C28.5399 67.9686 27.9897 67.3281 27.0421 67.3281C26.0945 67.3281 25.5443 67.9403 25.5443 68.9953C25.5443 70.2386 26.2473 70.6719 27.1338 70.6719C27.7553 70.6719 28.0916 70.5024 28.4584 70.1633L28.0101 69.7677C27.7553 70.0031 27.5515 70.1067 27.1542 70.1067C26.5734 70.1067 26.2575 69.7488 26.2575 69.1931H28.5501H28.5399ZM27.8368 68.7316H26.2473C26.2473 68.5338 26.2677 68.4396 26.339 68.2889C26.4511 68.044 26.7058 67.8744 27.0421 67.8744C27.3783 67.8744 27.6331 68.044 27.7451 68.2889C27.8165 68.4396 27.8368 68.5338 27.8368 68.7316ZM31.9431 70.6342V68.449C31.9431 67.7049 31.454 67.3281 30.486 67.3281C29.8951 67.3281 29.5486 67.4411 29.2124 67.7991L29.6811 68.2041C29.8747 67.9686 30.0683 67.8838 30.4555 67.8838C31.0057 67.8838 31.2298 68.0816 31.2298 68.4961V68.7316H30.2924C29.4875 68.7316 29.0697 69.1272 29.0697 69.6735C29.0697 69.9466 29.1716 70.2009 29.3448 70.3799C29.5588 70.5777 29.8543 70.6813 30.2924 70.6813C30.7306 70.6813 30.9751 70.5871 31.24 70.3422V70.6342H31.9329H31.9431ZM31.2298 69.4568C31.2298 69.6923 31.1789 69.843 31.077 69.9372C30.8834 70.1068 30.6898 70.1256 30.4147 70.1256C29.9664 70.1256 29.7626 69.956 29.7626 69.6641C29.7626 69.3721 29.9766 69.1931 30.3943 69.1931H31.2197V69.4568H31.2298ZM35.3768 67.6389C35.1323 67.4129 34.8776 67.3281 34.5311 67.3281C34.1338 67.3281 33.7669 67.4882 33.5937 67.7237V67.3658H32.8907V70.6342H33.6039V68.6468C33.6039 68.1947 33.9198 67.9121 34.307 67.9121C34.5515 67.9121 34.6738 67.9874 34.8368 68.1287L35.3768 67.6295V67.6389ZM38.3623 69.6358C38.3623 69.0518 37.9751 68.7692 37.3128 68.7127L36.7524 68.6656C36.3754 68.6374 36.2633 68.4867 36.2633 68.2889C36.2633 68.044 36.4773 67.865 36.9052 67.865C37.2415 67.865 37.5573 67.9309 37.7815 68.1005L38.2298 67.6766C37.9038 67.4129 37.4452 67.3093 36.9154 67.3093C36.1716 67.3093 35.5806 67.6672 35.5806 68.3077C35.5806 68.8823 35.9678 69.1554 36.6301 69.2119L37.2007 69.259C37.5471 69.2873 37.6796 69.4286 37.6796 69.6452C37.6796 69.956 37.3332 70.0973 36.9052 70.0973C36.5588 70.0973 36.1716 70.022 35.8863 69.7582L35.4176 70.1915C35.8354 70.5683 36.3244 70.6625 36.9052 70.6625C37.7509 70.6625 38.3725 70.3046 38.3725 69.6264M43.4161 68.9859C43.4161 68.4396 43.3346 68.0251 42.9984 67.7049C42.7742 67.4882 42.4176 67.3187 41.9387 67.3187C41.4598 67.3187 41.1134 67.4882 40.879 67.7049C40.5428 68.0251 40.4612 68.4396 40.4612 68.9859C40.4612 69.5322 40.5428 69.956 40.879 70.2763C41.1134 70.4929 41.4496 70.6625 41.9387 70.6625C42.4278 70.6625 42.7742 70.4929 42.9984 70.2763C43.3346 69.956 43.4161 69.5416 43.4161 68.9859ZM42.7029 68.9859C42.7029 69.3438 42.6723 69.6829 42.4583 69.8807C42.3259 70.0031 42.1425 70.0691 41.9387 70.0691C41.7349 70.0691 41.5515 69.9937 41.419 69.8807C41.2051 69.6829 41.1745 69.3344 41.1745 68.9859C41.1745 68.6374 41.2051 68.2889 41.419 68.091C41.5515 67.9686 41.7247 67.9027 41.9387 67.9027C42.1526 67.9027 42.3259 67.9686 42.4583 68.091C42.6723 68.2889 42.7029 68.6374 42.7029 68.9859ZM45.7698 67.9121V67.4129H45.0668V66.9419C45.0668 66.7064 45.189 66.5651 45.4539 66.5651H45.7698V66H45.3215C44.6592 66 44.3535 66.4427 44.3535 66.9137V67.4129H43.9459V67.9121H44.3535V70.6248H45.0668V67.9121H45.7698ZM50.7829 70.6248V68.5149C50.7829 67.8085 50.3447 67.3187 49.5602 67.3187C49.2137 67.3187 48.8877 67.4411 48.6432 67.686V66.0377H47.9299V70.6342H48.6432V68.6279C48.6432 68.1381 48.9692 67.9121 49.3666 67.9121C49.764 67.9121 50.0798 68.1287 50.0798 68.6279V70.6342H50.7931L50.7829 70.6248ZM54.5631 69.1837V68.8917C54.5631 67.9592 54.0129 67.3187 53.0653 67.3187C52.1177 67.3187 51.5674 67.9309 51.5674 68.9859C51.5674 70.2292 52.2705 70.6625 53.157 70.6625C53.7785 70.6625 54.1147 70.4929 54.4816 70.1538L54.0332 69.7582C53.7785 69.9937 53.5747 70.0973 53.1773 70.0973C52.5966 70.0973 52.2807 69.7394 52.2807 69.1837H54.5733H54.5631ZM53.86 68.7221H52.2705C52.2705 68.5243 52.2909 68.4301 52.3622 68.2794C52.4743 68.0345 52.729 67.865 53.0653 67.865C53.4015 67.865 53.6562 68.0345 53.7581 68.2794C53.8294 68.4301 53.8498 68.5243 53.86 68.7221ZM57.9663 70.6248V68.4396C57.9663 67.6954 57.4772 67.3187 56.5092 67.3187C55.9182 67.3187 55.5718 67.4317 55.2356 67.7896L55.7043 68.1947C55.8978 67.9592 56.0914 67.8744 56.4786 67.8744C57.0288 67.8744 57.253 68.0722 57.253 68.4867V68.7221H56.3156C55.5107 68.7221 55.0929 69.1177 55.0929 69.6641C55.0929 69.9372 55.1948 70.1915 55.368 70.3705C55.582 70.5683 55.8775 70.6719 56.3156 70.6719C56.7537 70.6719 56.9983 70.5777 57.253 70.3328V70.6248H57.9459H57.9663ZM57.253 69.4474C57.253 69.6829 57.2021 69.8336 57.1002 69.9278C56.9066 70.0973 56.713 70.1162 56.4379 70.1162C55.9896 70.1162 55.7858 69.9466 55.7858 69.6546C55.7858 69.3626 55.9997 69.1837 56.4175 69.1837H57.2428V69.4474H57.253ZM60.3098 70.6248V70.0597H59.9939C59.7086 70.0597 59.6067 69.9278 59.6067 69.6829V66.0283H58.8935V69.7206C58.8935 70.2009 59.189 70.6248 59.8614 70.6248H60.2996H60.3098ZM62.4291 70.6248V70.0597H62.1336C61.8687 70.0597 61.7464 69.9184 61.7464 69.6829V67.9121H62.4291V67.4129H61.7464V66.4239H61.0332V67.4129H60.6256V67.9121H61.0332V69.7111C61.0332 70.1821 61.3389 70.6248 62.0012 70.6248H62.4291V70.6248ZM66.0463 70.6248V68.5149C66.0463 67.8085 65.6081 67.3187 64.8134 67.3187C64.467 67.3187 64.1409 67.4411 63.8964 67.686V66.0377H63.1831V70.6342H63.8964V68.6279C63.8964 68.1381 64.2122 67.9121 64.6198 67.9121C65.0274 67.9121 65.333 68.1287 65.333 68.6279V70.6342H66.0463V70.6248ZM69.6736 67.3564H68.9094L68.0841 69.6546L67.2384 67.3564H66.4844L67.7173 70.4741L67.5237 70.9827C67.4218 71.2465 67.3097 71.3312 67.0143 71.3312H66.8308V71.9246H67.1161C67.3912 71.9246 67.646 71.8681 67.8396 71.6892C67.9415 71.595 68.023 71.4631 68.0943 71.2841L69.6532 67.3658L69.6736 67.3564ZM73.0462 70.6248V70.0597H72.7304C72.4451 70.0597 72.3432 69.9278 72.3432 69.6829V66.0283H71.6299V69.7206C71.6299 70.2009 71.9254 70.6248 72.5979 70.6248H73.0361H73.0462ZM74.4218 66.0094H73.6678V66.7064H74.4218V66.0094ZM74.4014 67.3469H73.6882V70.6154H74.4014V67.3469ZM76.9181 67.9121V67.4129H76.2151V66.9419C76.2151 66.7064 76.3373 66.5651 76.6023 66.5651H76.9181V66H76.4698C75.8075 66 75.5018 66.4427 75.5018 66.9137V67.4129H75.0943V67.9121H75.5018V70.6248H76.2151V67.9121H76.9181ZM80.2398 69.1743V68.8823C80.2398 67.9498 79.6896 67.3093 78.742 67.3093C77.7944 67.3093 77.2442 67.9215 77.2442 68.9765C77.2442 70.2198 77.9472 70.6531 78.8337 70.6531C79.4552 70.6531 79.7915 70.4835 80.1583 70.1444L79.71 69.7488C79.4552 69.9843 79.2515 70.0879 78.8541 70.0879C78.2733 70.0879 77.9574 69.73 77.9574 69.1743H80.25H80.2398ZM79.5368 68.7127H77.9472C77.9472 68.5149 77.9676 68.4207 78.0389 68.27C78.151 68.0251 78.4058 67.8556 78.742 67.8556C79.0782 67.8556 79.333 68.0251 79.4349 68.27C79.5062 68.4207 79.5266 68.5149 79.5368 68.7127Z" fill="white"/>
<path d="M34.762 55.0979V53.9147H31.5834V55.2358H33.131V55.546C33.131 55.971 33.0239 56.3271 32.7501 56.6258C32.4762 56.913 32.0715 57.0853 31.5834 57.0853C31.131 57.0853 30.7739 56.9245 30.5358 56.6603C30.2143 56.3156 30.131 55.9365 30.131 54.3742C30.131 52.8118 30.2143 52.4442 30.5358 52.0996C30.7739 51.8353 31.131 51.663 31.5834 51.663C32.4167 51.663 32.9048 52.2834 33.0953 53.0416H34.7501C34.5239 51.6745 33.5358 50.25 31.5834 50.25C30.6429 50.25 29.9048 50.5717 29.3215 51.1346C28.4763 51.9502 28.5001 52.9612 28.5001 54.3627C28.5001 55.7642 28.4763 56.7752 29.3215 57.5908C29.9167 58.1537 30.6667 58.4754 31.5834 58.4754C32.5001 58.4754 33.2858 58.2226 33.9524 57.5563C34.5358 56.959 34.7501 56.2582 34.7501 55.0864M40.1191 53.122C39.7024 52.7199 39.2739 52.5706 38.6905 52.5706C38.0239 52.5706 37.4048 52.8578 37.0953 53.2713V52.6395H35.9167V58.4065H37.1191V54.9026C37.1191 54.11 37.6548 53.6045 38.3096 53.6045C38.7262 53.6045 38.9286 53.7309 39.2024 53.9951L40.1072 53.122H40.1191ZM45.1905 55.523C45.1905 54.558 45.0477 53.8228 44.4881 53.2598C44.0953 52.8693 43.5119 52.5706 42.6905 52.5706C41.8691 52.5706 41.2977 52.8693 40.9048 53.2598C40.3453 53.8228 40.2024 54.558 40.2024 55.523C40.2024 56.488 40.3453 57.2347 40.9048 57.7976C41.2977 58.1882 41.8691 58.4869 42.6905 58.4869C43.5119 58.4869 44.0953 58.1882 44.4881 57.7976C45.0477 57.2347 45.1905 56.4995 45.1905 55.523ZM43.9881 55.523C43.9881 56.1548 43.9405 56.7522 43.5715 57.1083C43.3453 57.3266 43.0357 57.453 42.6905 57.453C42.3453 57.453 42.0477 57.3266 41.8215 57.1083C41.4524 56.7522 41.4048 56.1548 41.4048 55.523C41.4048 54.8911 41.4524 54.2938 41.8215 53.9376C42.0477 53.7194 42.3453 53.6045 42.6905 53.6045C43.0357 53.6045 43.3572 53.7194 43.5715 53.9376C43.9405 54.2938 43.9881 54.8911 43.9881 55.523ZM50.9048 58.4179V52.651H49.7024V56.1663C49.7024 57.0509 49.1429 57.453 48.4643 57.453C47.7857 57.453 47.2619 57.0624 47.2619 56.1663V52.651H46.0596V56.3386C46.0596 56.9934 46.2024 57.5334 46.6667 57.9699C47.0238 58.3031 47.5238 58.4984 48.1429 58.4984C48.7619 58.4984 49.3214 58.2801 49.7381 57.855V58.4409H50.9167L50.9048 58.4179ZM57 55.523C57 54.6499 56.9286 53.6734 56.3333 53.0875C56 52.7659 55.4762 52.5706 54.8691 52.5706C54.2262 52.5706 53.7381 52.7314 53.2857 53.2598V52.651H52.1072V60.75H53.3095V57.8206C53.75 58.326 54.2381 58.4754 54.881 58.4754C55.4762 58.4754 56 58.2801 56.3333 57.9584C56.9286 57.3725 57 56.3846 57 55.5115M55.7976 55.5115C55.7976 56.5339 55.6429 57.43 54.5595 57.43C53.4762 57.43 53.3095 56.5339 53.3095 55.5115C53.3095 54.4891 53.4762 53.6045 54.5595 53.6045C55.6429 53.6045 55.7976 54.4891 55.7976 55.5115" fill="white"/>
<path d="M34.562 47.146V39H32.9376V42.3277H30.1244V39H28.5V47.146H30.1244V43.7374H32.9376V47.146H34.562ZM40.7182 44.5809V44.0725C40.7182 42.4202 39.8001 41.2763 38.211 41.2763C36.6219 41.2763 35.7038 42.3624 35.7038 44.2342C35.7038 46.4412 36.8809 47.2153 38.364 47.2153C39.3999 47.2153 39.9766 46.9034 40.577 46.3141L39.8236 45.6208C39.3999 46.0368 39.0585 46.2216 38.3876 46.2216C37.4223 46.2216 36.8809 45.5861 36.8809 44.5924H40.7182V44.5809ZM39.5411 43.7721H36.8809C36.8809 43.4139 36.9162 43.2405 37.0339 42.9863C37.2222 42.5473 37.646 42.2584 38.211 42.2584C38.776 42.2584 39.188 42.7553 39.3763 43.1943C39.494 43.4601 39.5293 43.4254 39.5411 43.7836M45.7091 47.1576V43.2752C45.7091 41.958 44.8969 41.2878 43.2725 41.2878C42.2955 41.2878 41.707 41.4842 41.1537 42.1197L41.9306 42.8361C42.2602 42.4202 42.578 42.27 43.2254 42.27C44.1435 42.27 44.5202 42.6282 44.5202 43.3561V43.7721H42.9547C41.601 43.7721 40.9183 44.4653 40.9183 45.4475C40.9183 45.9443 41.0831 46.3834 41.3891 46.6954C41.754 47.0536 42.2367 47.2269 42.9782 47.2269C43.7198 47.2269 44.12 47.0536 44.5555 46.6261V47.1576H45.7208H45.7091ZM44.5202 45.0662C44.5202 45.4821 44.4378 45.7479 44.2612 45.9212C43.9434 46.2216 43.6021 46.2563 43.1548 46.2563C42.4132 46.2563 42.0719 45.9559 42.0719 45.4359C42.0719 44.916 42.4368 44.604 43.1312 44.604H44.5202V45.0777V45.0662ZM49.1579 47.1576V46.1639H48.6282C48.1456 46.1639 47.9809 45.9328 47.9809 45.4937V39.0116H46.792V45.563C46.792 46.4181 47.2864 47.1691 48.4164 47.1691H49.1462L49.1579 47.1576ZM52.2302 47.1576V46.1639H51.7358C51.2885 46.1639 51.0766 45.9097 51.0766 45.4937V42.3624H52.2184V41.4727H51.0766V39.7048H49.8877V41.4727H49.2168V42.3624H49.8877V45.5515C49.8877 46.3834 50.4057 47.1691 51.5121 47.1691H52.2184L52.2302 47.1576ZM58.045 47.1576V43.4139C58.045 42.1544 57.3152 41.2878 55.9968 41.2878C55.4083 41.2878 54.8786 41.5074 54.4666 41.9349V39H53.2778V47.146H54.4666V43.5872C54.4666 42.7206 55.0081 42.3162 55.6673 42.3162C56.3264 42.3162 56.8561 42.709 56.8561 43.5872V47.146H58.045V47.1576ZM63.4596 46.4065L62.6474 45.6439C62.2707 46.0483 61.9882 46.1985 61.5174 46.1985C61.0466 46.1985 60.6817 46.0137 60.4227 45.6786C60.1637 45.355 60.0696 44.9391 60.0696 44.2574C60.0696 43.5756 60.1637 43.1712 60.4227 42.8477C60.6817 42.5126 61.0583 42.3277 61.5174 42.3277C61.9765 42.3277 62.2707 42.4779 62.6474 42.8824L63.4596 42.1082C62.8946 41.5305 62.3296 41.2994 61.5174 41.2994C60.1873 41.2994 58.8807 42.0851 58.8807 44.2574C58.8807 46.4296 60.1873 47.2384 61.5174 47.2384C62.3296 47.2384 62.9064 46.9958 63.4596 46.4181M68.627 47.1691V43.2868C68.627 41.9695 67.8148 41.2994 66.1904 41.2994C65.2135 41.2994 64.6249 41.4958 64.0717 42.1313L64.8486 42.8477C65.1781 42.4317 65.4842 42.2815 66.1434 42.2815C67.0615 42.2815 67.4382 42.6397 67.4382 43.3676V43.7836H65.8726C64.519 43.7836 63.8363 44.4769 63.8363 45.459C63.8363 45.9559 64.0011 46.395 64.3071 46.7069C64.672 47.0651 65.1546 47.2384 65.8962 47.2384C66.6377 47.2384 67.0379 47.0651 67.4735 46.6376V47.1691H68.6388H68.627ZM67.4382 45.0777C67.4382 45.4937 67.3558 45.7595 67.1792 45.9328C66.8614 46.2332 66.5318 46.2679 66.0727 46.2679C65.3312 46.2679 64.9898 45.9674 64.9898 45.4475C64.9898 44.9275 65.3547 44.6155 66.0492 44.6155H67.4382V45.0893V45.0777ZM73.9122 41.854C73.5002 41.4496 73.0764 41.3109 72.4996 41.3109C71.8405 41.3109 71.2284 41.5998 70.9223 42.0042V41.3687H69.757V47.1691H70.9459V43.645C70.9459 42.8477 71.4873 42.3393 72.123 42.3393C72.535 42.3393 72.7351 42.4664 73.0058 42.7321L73.9004 41.854H73.9122ZM78.75 44.6155V44.1071C78.75 42.4548 77.8319 41.3109 76.2428 41.3109C74.6537 41.3109 73.7356 42.3971 73.7356 44.2689C73.7356 46.4758 74.9127 47.25 76.3958 47.25C77.4317 47.25 78.0084 46.938 78.6087 46.3487L77.8554 45.6555C77.4317 46.0714 77.0903 46.2563 76.4194 46.2563C75.4541 46.2563 74.9127 45.6208 74.9127 44.6271H78.75V44.6155ZM77.5729 43.8067H74.9127C74.9245 43.4485 74.948 43.2752 75.0657 43.021C75.254 42.5819 75.6896 42.2931 76.2428 42.2931C76.796 42.2931 77.2198 42.5935 77.4081 43.021C77.5258 43.2868 77.5611 43.4601 77.5729 43.8067" fill="white"/>
<path d="M34.9132 36.6578V28.5346H33.2743V33.5122L29.9608 28.5346H28.5V36.6578H30.1389V31.6686L33.4524 36.6578H34.9132V36.6578ZM40.5307 36.6578V32.7863C40.5307 31.4728 39.7112 30.8045 38.0723 30.8045C37.0866 30.8045 36.4928 31.0003 35.9346 31.6341L36.7184 32.3485C37.0509 31.9337 37.3716 31.7954 38.0248 31.7954C38.9511 31.7954 39.3312 32.1526 39.3312 32.8785V33.2933H37.7516C36.3859 33.2933 35.697 33.9846 35.697 34.964C35.697 35.4595 35.8633 35.8973 36.1721 36.2084C36.5403 36.5656 37.0272 36.7385 37.7754 36.7385C38.5236 36.7385 38.9274 36.5656 39.3668 36.1393V36.6693H40.5426L40.5307 36.6578ZM39.3312 34.5723C39.3312 34.9871 39.2481 35.2636 39.0699 35.4249C38.7493 35.7245 38.4167 35.7591 37.9535 35.7591C37.2053 35.7591 36.8609 35.4595 36.8609 34.941C36.8609 34.4225 37.2291 34.1114 37.9298 34.1114H39.3312V34.5838V34.5723ZM44.4024 36.6578V35.6669H43.9036C43.4523 35.6669 43.2385 35.4134 43.2385 34.9986V31.876H44.3905V30.9888H43.2385V29.2259H42.039V30.9888H41.3502V31.876H42.039V35.0562C42.039 35.8858 42.5615 36.6693 43.6779 36.6693H44.3905L44.4024 36.6578ZM46.6945 28.5H45.4237V29.7329H46.6945V28.5ZM46.6589 30.8736H45.4594V36.6578H46.6589V30.8736ZM52.787 33.7657C52.787 32.7978 52.6445 32.0604 52.0863 31.4958C51.6944 31.104 51.1125 30.8045 50.293 30.8045C49.4736 30.8045 48.9035 31.104 48.5116 31.4958C47.9534 32.0604 47.8109 32.7978 47.8109 33.7657C47.8109 34.7336 47.9534 35.4825 48.5116 36.0471C48.9035 36.4389 49.4736 36.7385 50.293 36.7385C51.1125 36.7385 51.6944 36.4389 52.0863 36.0471C52.6564 35.4825 52.787 34.7451 52.787 33.7657ZM51.5875 33.7657C51.5875 34.3994 51.54 34.9986 51.1719 35.3558C50.9462 35.5747 50.6374 35.7015 50.293 35.7015C49.9486 35.7015 49.6517 35.5747 49.4261 35.3558C49.0579 34.9986 49.0104 34.3994 49.0104 33.7657C49.0104 33.132 49.0579 32.5328 49.4261 32.1756C49.6517 31.9567 49.9486 31.8415 50.293 31.8415C50.6374 31.8415 50.9581 31.9567 51.1719 32.1756C51.54 32.5328 51.5875 33.132 51.5875 33.7657ZM58.7727 36.6693V32.9707C58.7727 32.3254 58.6302 31.7723 58.167 31.3345C57.8107 31.0003 57.3119 30.8045 56.6944 30.8045C56.0768 30.8045 55.5186 31.0234 55.1029 31.4612V30.8736H53.9272V36.6578H55.1267V33.132C55.1267 32.2448 55.6967 31.8415 56.3618 31.8415C57.0269 31.8415 57.5613 32.2332 57.5613 33.132V36.6578H58.7608L58.7727 36.6693ZM64.5327 36.6693V32.7978C64.5327 31.4843 63.7132 30.816 62.0743 30.816C61.0886 30.816 60.4948 31.0119 59.9366 31.6456L60.7204 32.36C61.053 31.9452 61.3617 31.8069 62.0268 31.8069C62.9532 31.8069 63.3332 32.1641 63.3332 32.89V33.3048H61.7537C60.3879 33.3048 59.6991 33.9962 59.6991 34.9756C59.6991 35.471 59.8653 35.9089 60.1741 36.22C60.5423 36.5772 61.0292 36.75 61.7774 36.75C62.5256 36.75 62.9294 36.5772 63.3688 36.1508V36.6809H64.5446L64.5327 36.6693ZM63.3332 34.5838C63.3332 34.9986 63.2501 35.2751 63.0719 35.4365C62.7513 35.736 62.4069 35.7706 61.9556 35.7706C61.2073 35.7706 60.8629 35.471 60.8629 34.9525C60.8629 34.434 61.2311 34.1229 61.9318 34.1229H63.3332V34.5953V34.5838ZM68.25 36.6693V35.6784H67.7156C67.2286 35.6784 67.0742 35.448 67.0742 35.0101V28.5461H65.8747V35.0793C65.8747 35.9319 66.3735 36.6809 67.5137 36.6809H68.25V36.6693Z" fill="white"/>
<path d="M3.87978 12.4659L2.14355 14.5085C2.14355 14.5085 7.68751 15.2628 11.603 20.4737C12.5489 19.7194 13.5428 18.965 14.6204 18.1874C15.746 17.3867 16.9314 16.6439 18.1528 15.9476C15.1832 11.1313 11.4833 8.43878 8.42989 7.19699L3.86781 12.4659H3.87978Z" fill="white"/>
<path d="M0.478345 44.7061C0.310709 44.2419 0.167022 43.7312 0.0353078 43.1858C0.0353078 43.1858 -0.0724579 49.8125 5.45952 50.2303C10.9915 50.6597 21.9118 44.0562 22.1393 31.1392C22.1872 28.2262 21.8399 25.6034 21.2412 23.2358C18.8823 24.1527 16.6073 25.2204 14.4999 26.4506C15.1944 28.9342 15.5416 31.9052 15.35 35.5145C14.8711 44.3695 6.621 51.4837 2.25049 47.5494C2.1547 47.4566 2.05891 47.3637 1.96312 47.2709C1.96312 47.2709 1.96312 47.2709 1.95114 47.2593C1.66377 46.9576 1.40034 46.5978 1.16086 46.1916C1.16086 46.1916 1.14889 46.1684 1.13691 46.1568C1.06507 46.0407 1.0052 45.9247 0.933356 45.797C0.909408 45.7622 0.897434 45.7158 0.873486 45.6809C0.82559 45.5765 0.777694 45.472 0.717825 45.356C0.693877 45.3096 0.669929 45.2631 0.657955 45.2167C0.610059 45.1007 0.562163 44.9846 0.514267 44.8686C0.490319 44.8221 0.478345 44.7757 0.466371 44.7293" fill="white"/>
<path d="M19.5185 12.9765C21.0751 14.2415 24.7751 12.4659 27.7805 8.99584C30.786 5.52579 31.9594 1.68436 30.3909 0.407751C28.8342 -0.857252 25.1223 0.918394 22.1168 4.38845C19.1114 7.8585 17.9379 11.6999 19.5065 12.9765" fill="white"/>
<path d="M45.6208 9.26277C43.8606 9.49488 27.0132 11.9088 16.1768 19.6729C1.28113 30.35 -0.335355 38.9265 0.0478125 43.325C0.55072 45.7158 1.44877 46.8183 2.25102 47.5378C-0.646678 18.3499 52.5657 17.3286 52.5657 17.3286L51.4042 15.9476L45.6088 9.25116L45.6208 9.26277Z" fill="white"/>
</svg>
