<svg width="71" height="49" viewBox="0 0 71 49" fill="none" xmlns="http://www.w3.org/2000/svg">
<path d="M2.53682 24.8033C1.41858 22.4937 0.762695 19.8828 0.762695 17.1157C0.762695 7.66526 8.14955 0 17.2675 0C26.3855 0 33.7723 7.66526 33.7723 17.1157C33.7723 26.5662 26.3855 34.2315 17.2675 34.2315V48.8144C17.2675 48.8144 6.827 36.5188 2.53682 24.7921M54.277 48.8144V34.2315C63.3842 34.2315 70.771 26.5662 70.771 17.1157C70.771 7.66526 63.3842 0 54.277 0C45.1698 0 37.7829 7.66526 37.7829 17.1157C37.7829 19.8828 38.4281 22.4937 39.5571 24.8033C43.8365 36.5299 54.2878 48.8256 54.2878 48.8256" fill="#00A39D"/>
</svg>
