<svg width="66" height="44" viewBox="0 0 66 44" fill="none" xmlns="http://www.w3.org/2000/svg">
<path d="M1.64664 21.6009C0.598776 23.6817 0 26.0169 0 28.5168C0 37.0195 6.88595 43.9054 15.3886 43.9054C23.8912 43.9054 30.7772 37.0195 30.7772 28.5168C30.7772 20.0142 23.8912 13.1282 15.3886 13.1282V0C15.3886 0 5.64348 11.0475 1.64664 21.6009ZM49.9082 0V13.1132C58.4108 13.1132 65.2968 19.9992 65.2968 28.5018C65.2968 37.0045 58.4108 43.8904 49.9082 43.8904C41.4055 43.8904 34.5196 37.0045 34.5196 28.5018C34.5196 26.0169 35.1183 23.6667 36.1662 21.586C40.163 11.0475 49.9082 0 49.9082 0Z" fill="white"/>
</svg>
